<svg xmlns="http://www.w3.org/2000/svg">
<defs>
<font id="BebasNeuePro-Regular" horiz-adv-x="400" >
  <font-face 
    font-family="Bebas Neue Pro"
    font-weight="400"
    font-stretch="normal"
    units-per-em="1000"
    panose-1="2 11 5 6 2 2 2 5 2 1"
    ascent="811"
    descent="-189"
    x-height="503"
    cap-height="700"
    bbox="-203 -207 796 910"
    underline-thickness="60"
    underline-position="-20"
    unicode-range="U+000D-U+FB02"
  />
<missing-glyph horiz-adv-x="738" 
d="M54 0v700h630v-700h-630zM152 134h434v432h-434v-432zM168 550h114v-112h-114v112zM346 390h-32v16h-16v80h32v32h-32v32h16v-16h32v-16h16v16h-16v16h32v-16h16v16h16v-32h16v-16h-16v-32h-16v-16h-16v48h-32v-16h16v-32h-16v16h-32v-48h16v32h16v-16h16v16h16v-32h-32
v-32zM426 550h16v-32h-16v32zM458 550h112v-112h-112v112zM184 454h82v80h-82v-80zM474 454h80v80h-80v-80zM200 518h50v-48h-50v48zM490 518h48v-48h-48v48zM410 454v-32h-16v32h16zM442 438h-16v16h16v-16zM200 406v-16h17v-16h-33v16h-16v32h49v-16h-17zM282 422v-16h-16
v-16h-32v16h16v16h32zM426 390v-16h-16v48h16v-16h16v-16h-16zM442 390h16v16h-16v16h64v-16h-16v-16h16v16h16v-16h16v-16h-16v-16h-32v16h-32v-16h-16v32zM570 374h-16v16h-16v32h32v-48zM282 406h16v-32h-32v16h16v16zM378 406h16v-16h-16v16zM362 390v-16h-16v16h16z
M217 358v16h17v-16h-17zM266 358h32v-16h-64v16h16v16h16v-16zM314 326v48h16v-48h-16zM410 358h-16v16h16v-16zM168 358h16v-32h-16v32zM410 342h48v16h32v-32h48v-16h-48v-16h16v-32h16v-16h-16v-16h16v-16h32v-16h16v-16h-32v16h-32v-32h-32v-16h-16v16h-16v-16h-16v32
h-16v-32h-32v16h16v16h-16v-16h-32v16h16v32h-16v-16h-16v32h48v16h16v-32h-16v-16h32v48h16v16h-16v16h-16v-16h-16v32h16v16h16v-16h16v16h-16v32zM378 310v-16h-32v16h16v32h-16v16h32v-16h16v-32h-16zM570 310h-16v16h-16v16h16v16h16v-48zM234 294h-17v16h-17v16h17v16
h17v-32h16v-32h-16v16zM298 326v-32h16v-32h-16v16h-32v16h16v16h-32v16h48zM330 326h16v-16h-16v16zM168 310h32v-16h-32v16zM314 310h16v-16h-16v16zM458 310h-16v-16h16v16zM217 278h-17v16h17v-16zM346 278h-16v16h16v-16zM538 294h16v-16h-16v16zM442 230h48v48h-48

<glyph glyph-name="fi" unicode="fi" horiz-adv-x="433" 
d="M81 503v93q0 114 110 114q35 0 56 -10v-65q-21 8 -42 8q-26 0 -37.5 -12.5t-11.5 -43.5v-84h91v-64h-91v-439h-75v439h-64v64h64zM310 575v108h75v-108h-75zM385 0h-75v503h75v-503z" />
    <glyph glyph-name="fl" unicode="fl" horiz-adv-x="433" 
d="M81 503v93q0 114 110 114q35 0 56 -10v-65q-21 8 -42 8q-26 0 -37.5 -12.5t-11.5 -43.5v-84h91v-64h-91v-439h-75v439h-64v64h64zM310 0v700h75v-700h-75z" />
    <glyph glyph-name=".notdef" horiz-adv-x="738" 
d="M54 0v700h630v-700h-630zM152 134h434v432h-434v-432zM168 550h114v-112h-114v112zM346 390h-32v16h-16v80h32v32h-32v32h16v-16h32v-16h16v16h-16v16h32v-16h16v16h16v-32h16v-16h-16v-32h-16v-16h-16v48h-32v-16h16v-32h-16v16h-32v-48h16v32h16v-16h16v16h16v-32h-32
v-32zM426 550h16v-32h-16v32zM458 550h112v-112h-112v112zM184 454h82v80h-82v-80zM474 454h80v80h-80v-80zM200 518h50v-48h-50v48zM490 518h48v-48h-48v48zM410 454v-32h-16v32h16zM442 438h-16v16h16v-16zM200 406v-16h17v-16h-33v16h-16v32h49v-16h-17zM282 422v-16h-16
v-16h-32v16h16v16h32zM426 390v-16h-16v48h16v-16h16v-16h-16zM442 390h16v16h-16v16h64v-16h-16v-16h16v16h16v-16h16v-16h-16v-16h-32v16h-32v-16h-16v32zM570 374h-16v16h-16v32h32v-48zM282 406h16v-32h-32v16h16v16zM378 406h16v-16h-16v16zM362 390v-16h-16v16h16z
M217 358v16h17v-16h-17zM266 358h32v-16h-64v16h16v16h16v-16zM314 326v48h16v-48h-16zM410 358h-16v16h16v-16zM168 358h16v-32h-16v32zM410 342h48v16h32v-32h48v-16h-48v-16h16v-32h16v-16h-16v-16h16v-16h32v-16h16v-16h-32v16h-32v-32h-32v-16h-16v16h-16v-16h-16v32
h-16v-32h-32v16h16v16h-16v-16h-32v16h16v32h-16v-16h-16v32h48v16h16v-32h-16v-16h32v48h16v16h-16v16h-16v-16h-16v32h16v16h16v-16h16v16h-16v32zM378 310v-16h-32v16h16v32h-16v16h32v-16h16v-32h-16zM570 310h-16v16h-16v16h16v16h16v-48zM234 294h-17v16h-17v16h17v16
h17v-32h16v-32h-16v16zM298 326v-32h16v-32h-16v16h-32v16h16v16h-32v16h48zM330 326h16v-16h-16v16zM168 310h32v-16h-32v16zM314 310h16v-16h-16v16zM458 310h-16v-16h16v16zM217 278h-17v16h17v-16zM346 278h-16v16h16v-16zM538 294h16v-16h-16v16zM442 230h48v48h-48
v-48zM522 278h16v-16h-16v16zM538 230v16h16v32h16v-64h-16v16h-16zM168 262h114v-112h-114v112zM314 246v16h16v-32h-32v16h16zM362 246h-16v16h16v-16zM458 262h16v-16h-16v16zM184 166h82v80h-82v-80zM200 230h50v-48h-50v48zM426 198h16v16h-16v-16zM458 182h32v32h-32
v-32zM298 198h32v-32h16v-16h-48v48zM522 166v-16h-16v16h16zM570 150h-16v16h16v-16z" />
    <glyph glyph-name=".null" horiz-adv-x="0" 
 />
    <glyph glyph-name="nonmarkingreturn" horiz-adv-x="333" 
 />
    <glyph glyph-name="CR" unicode="&#xd;" horiz-adv-x="163" 
 />
    <glyph glyph-name="space" unicode=" " horiz-adv-x="163" 
 />
    <glyph glyph-name="exclam" unicode="!" horiz-adv-x="198" 
d="M129 176h-59l-10 196v329h78v-329zM139 0h-79v101h79v-101z" />
    <glyph glyph-name="quotedbl" unicode="&#x22;" horiz-adv-x="290" 
d="M104 497h-43l-18 203h80zM228 497h-42l-19 203h80z" />
    <glyph glyph-name="numbersign" unicode="#" 
d="M116 0h-60l23 213h-57l5 53h57l21 208h-58l5 53h59l17 174h59l-17 -174h95l18 174h59l-18 -174h56l-6 -53h-55l-21 -208h55l-5 -53h-55l-22 -213h-59l21 213h-95zM164 474l-21 -208h96l20 208h-95z" />
    <glyph glyph-name="dollar" unicode="$" 
d="M358 174q0 -67 -32 -109t-92 -51v-69h-65v68q-62 8 -94 49.5t-32 110.5v43h74v-48q0 -41 21.5 -63t60.5 -22t60 22t21 64q0 43 -21 74q-19 32 -76 77h-14v11q-69 54 -96.5 98t-27.5 101q0 65 32 106t92 51v58h65v-58q59 -9 90.5 -50.5t31.5 -108.5v-22h-74v27
q0 65 -48 80v-235q70 -55 97 -100q27 -44 27 -104zM123 535q0 -55 46 -101v178q-46 -16 -46 -77z" />
    <glyph glyph-name="percent" unicode="%" horiz-adv-x="569" 
d="M28 420v180q0 53 26.5 82t76.5 29q49 0 76 -29t27 -82v-180q0 -53 -26.5 -81.5t-76.5 -28.5t-76.5 28.5t-26.5 81.5zM175 0h-54l273 700h53zM180 416v188q0 58 -49 58t-49 -58v-188q0 -58 49 -58t49 58zM439 -10q-50 0 -76.5 29t-26.5 82v180q0 53 26.5 81.5t76.5 28.5
t76.5 -28.5t26.5 -81.5v-180q0 -53 -27 -82t-76 -29zM488 97v188q0 58 -49 58t-49 -58v-188q0 -58 49 -58t49 58z" />
    <glyph glyph-name="ampersand" unicode="&#x26;" horiz-adv-x="412" 
d="M387 393v-69h-32v-187q0 -89 12 -137h-70q-4 10 -9 67q-35 -77 -123 -77q-125 0 -125 146v83q0 115 83 142v2q-81 29 -81 141v37q0 82 39.5 125.5t116.5 43.5q157 0 157 -170v-22h-73v29q0 93 -81 93q-83 0 -83 -97v-55q0 -95 89 -95h180zM280 169v155h-74
q-90 0 -90 -105v-77q0 -84 73 -84q41 0 66 29.5t25 81.5z" />
    <glyph glyph-name="quotesingle" unicode="'" horiz-adv-x="165" 
d="M104 497h-43l-18 203h80z" />
    <glyph glyph-name="parenleft" unicode="(" horiz-adv-x="264" 
d="M229 -100h-29q-72 0 -106.5 32.5t-34.5 110.5v515q0 73 32 107.5t109 34.5h29v-60h-24q-38 0 -55.5 -18t-17.5 -64v-515q0 -43 17 -63t56 -20h24v-60z" />
    <glyph glyph-name="parenright" unicode=")" horiz-adv-x="264" 
d="M64 -100h-29v60h24q38 0 56 18.5t18 64.5v515q0 43 -17 62.5t-57 19.5h-24v60h29q73 0 107 -32.5t34 -109.5v-515q0 -74 -32 -108.5t-109 -34.5z" />
    <glyph glyph-name="asterisk" unicode="*" horiz-adv-x="407" 
d="M203 488l-78 -131l-52 38l99 115l-149 34l20 61l142 -59l-14 154h65l-14 -154l142 58l20 -61l-149 -33l99 -115l-52 -38z" />
    <glyph glyph-name="plus" unicode="+" 
d="M230 128h-60v143h-140v60h140v141h60v-141h140v-60h-140v-143z" />
    <glyph glyph-name="comma" unicode="," horiz-adv-x="183" 
d="M82 -108h-36l34 108h-28v101h79v-93z" />
    <glyph glyph-name="hyphen" unicode="-" horiz-adv-x="265" 
d="M235 268h-205v64h205v-64z" />
    <glyph glyph-name="period" unicode="." horiz-adv-x="183" 
d="M131 0h-79v101h79v-101z" />
    <glyph glyph-name="slash" unicode="/" horiz-adv-x="373" 
d="M83 -100h-68l276 800h68z" />
    <glyph glyph-name="zero" unicode="0" 
d="M200 -10q-77 0 -118.5 45t-41.5 128v375q0 83 41.5 127.5t118.5 44.5q78 0 119.5 -44.5t41.5 -127.5v-375q0 -83 -41.5 -128t-119.5 -45zM200 61q83 0 83 97v385q0 96 -83 96q-82 0 -82 -96v-385q0 -97 82 -97z" />
    <glyph glyph-name="one" unicode="1" horiz-adv-x="277" 
d="M222 0h-78v572q-46 -21 -120 -22v58q60 1 93.5 22.5t50.5 70.5h54v-701z" />
    <glyph glyph-name="two" unicode="2" horiz-adv-x="369" 
d="M337 0h-308v60q0 81 29 141q31 60 95 127q63 66 88 109q26 46 26 98q0 104 -81 104q-83 0 -83 -96v-63h-74v58q0 82 40 127t119 45q77 0 117 -45t40 -127q0 -63 -30.5 -120.5t-101.5 -131.5q-56 -56 -83 -102q-24 -42 -24 -98v-15h231v-71z" />
    <glyph glyph-name="three" unicode="3" horiz-adv-x="376" 
d="M185 -10q-79 0 -119 44.5t-40 126.5v53h74v-56q0 -97 83 -97q82 0 82 104v61q0 104 -88 104h-42v71h44q84 0 84 95v46q0 97 -80 97q-79 0 -79 -94v-41h-74v35q0 83 39.5 127t116.5 44q75 0 115 -44t40 -126v-28q0 -115 -82 -142v-2q84 -27 84 -142v-65q0 -83 -40 -127
t-118 -44z" />
    <glyph glyph-name="four" unicode="4" horiz-adv-x="398" 
d="M324 0h-78v141h-227v72l218 487h87v-488h56v-71h-56v-141zM246 562l-154 -350h154v350z" />
    <glyph glyph-name="five" unicode="5" horiz-adv-x="381" 
d="M192 -10q-79 0 -119 45t-40 128v47h74v-53q0 -96 83 -96q82 0 82 96v151q0 94 -77 94q-70 0 -85 -77v-6h-74l20 381h278v-71h-209l-11 -213q34 57 110 57q126 0 126 -159v-151q0 -83 -40 -128t-118 -45z" />
    <glyph glyph-name="six" unicode="6" horiz-adv-x="392" 
d="M200 -10q-78 0 -119.5 45t-41.5 128v371q0 176 161 176q77 0 117.5 -44.5t40.5 -127.5v-13h-74v18q0 96 -82 96q-85 0 -85 -108v-158q35 69 115 69q128 0 128 -161v-118q0 -83 -41.5 -128t-118.5 -45zM200 61q82 0 82 96v118q0 96 -79 96q-40 0 -63 -28t-23 -75v-111
q0 -96 83 -96z" />
    <glyph glyph-name="seven" unicode="7" horiz-adv-x="356" 
d="M145 0h-81l196 629h-243v71h320v-69z" />
    <glyph glyph-name="eight" unicode="8" horiz-adv-x="396" 
d="M33 161v65q0 111 79 142v1q-75 35 -75 139v34q0 82 41 125t120 43t120.5 -43t41.5 -125v-34q0 -105 -76 -139v-1q80 -32 80 -142v-65q0 -82 -43 -126.5t-123 -44.5t-122.5 44.5t-42.5 126.5zM198 401q84 0 84 92v51q0 95 -84 95q-83 0 -83 -95v-51q0 -92 83 -92zM198 61
q88 0 88 104v68q0 97 -88 97q-87 0 -87 -97v-68q0 -104 87 -104z" />
    <glyph glyph-name="nine" unicode="9" horiz-adv-x="393" 
d="M193 -10q-78 0 -118 44.5t-40 128.5v12h74v-17q0 -97 82 -97q43 0 63.5 26t20.5 83v158q-34 -70 -114 -70q-129 0 -129 162v118q0 83 41.5 127.5t119.5 44.5q77 0 118.5 -44.5t41.5 -127.5v-371q0 -177 -160 -177zM189 329q41 0 63.5 27.5t22.5 75.5v111q0 96 -82 96
q-83 0 -83 -96v-117q0 -97 79 -97z" />
    <glyph glyph-name="colon" unicode=":" horiz-adv-x="183" 
d="M131 381h-79v101h79v-101zM131 0h-79v101h79v-101z" />
    <glyph glyph-name="semicolon" unicode=";" horiz-adv-x="183" 
d="M131 381h-79v101h79v-101zM82 -108h-36l34 108h-28v101h79v-93z" />
    <glyph glyph-name="less" unicode="&#x3c;" 
d="M347 196v-62l-300 138v57l300 137v-62l-228 -104z" />
    <glyph glyph-name="equal" unicode="=" 
d="M360 351h-320v60h320v-60zM360 189h-320v60h320v-60z" />
    <glyph glyph-name="greater" unicode="&#x3e;" 
d="M354 272l-300 -138v62l228 104l-228 104v62l300 -137v-57z" />
    <glyph glyph-name="question" unicode="?" horiz-adv-x="362" 
d="M198 176h-68v40q0 76 63 165q37 53 51.5 88t14.5 77q0 93 -80 93t-80 -96v-63h-74v58q0 82 39.5 127t116.5 45t116.5 -44t39.5 -125q0 -47 -17 -89t-57 -94q-36 -49 -50.5 -79.5t-14.5 -64.5v-38zM203 0h-79v101h79v-101z" />
    <glyph glyph-name="at" unicode="@" horiz-adv-x="696" 
d="M509 499l-26 -244l-4 -31q-9 -58 34 -58q30 0 51 41q40 76 40 210q0 109 -61 170t-170 61q-95 0 -159 -54q-116 -99 -114 -344q5 -136 74.5 -207t199.5 -71q102 0 173 55l-5 -72q-71 -45 -169 -45q-162 0 -250 89.5t-91 257.5q0 204 86 329q87 124 253 124
q141 0 217.5 -76.5t76.5 -218.5q0 -79 -15 -147t-55 -117q-39 -50 -97 -50q-73 0 -84 68q-36 -68 -104 -68q-114 0 -101 138l14 143q13 127 113 127q69 0 97 -58l5 48h71zM334 163q30 0 51 24t28 68v4l10 94q2 43 -16 68.5t-52 25.5q-54 0 -62 -74l-14 -131q-7 -79 55 -79z
" />
    <glyph glyph-name="A" unicode="A" 
d="M383 0h-79l-26 149h-162l-26 -149h-73l130 700h105zM196 611l-68 -394h138z" />
    <glyph glyph-name="B" unicode="B" horiz-adv-x="402" 
d="M212 0h-164v700h156q83 0 120.5 -38.5t37.5 -120.5v-29q0 -112 -78 -140v-2q89 -26 89 -147v-60q0 -163 -161 -163zM126 629v-228h66q48 0 70 22.5t22 73.5v36q0 51 -19 73.5t-63 22.5h-76zM126 330v-259h86q43 0 63 22t20 72v60q0 57 -22.5 81t-76.5 24h-70z" />
    <glyph glyph-name="C" unicode="C" horiz-adv-x="382" 
d="M196 -10q-74 0 -115 44t-41 123v386q0 79 40.5 123t115.5 44t115.5 -44t40.5 -123v-72h-74v77q0 44 -21.5 67.5t-58.5 23.5t-58.5 -23.5t-21.5 -67.5v-396q0 -44 21.5 -67.5t58.5 -23.5t58.5 23.5t21.5 67.5v98h74v-93q0 -79 -40.5 -123t-115.5 -44z" />
    <glyph glyph-name="D" unicode="D" horiz-adv-x="406" 
d="M208 0h-160v700h160q158 0 158 -170v-360q0 -170 -158 -170zM126 629v-558h80q42 0 62 22.5t20 73.5v367q0 50 -19.5 72.5t-62.5 22.5h-80z" />
    <glyph glyph-name="E" unicode="E" horiz-adv-x="356" 
d="M335 0h-287v700h287v-71h-209v-228h170v-71h-170v-259h209v-71z" />
    <glyph glyph-name="F" unicode="F" horiz-adv-x="342" 
d="M126 0h-78v700h278v-71h-200v-238h161v-71h-161v-320z" />
    <glyph glyph-name="G" unicode="G" horiz-adv-x="393" 
d="M198 -10q-77 0 -117.5 44.5t-40.5 128.5v375q0 83 40.5 127.5t117.5 44.5q78 0 118.5 -44t40.5 -128v-57h-74v62q0 96 -83 96q-82 0 -82 -96v-386q0 -96 82 -96q83 0 83 96v157h-77v71h151v-222q0 -84 -40.5 -128.5t-118.5 -44.5z" />
    <glyph glyph-name="H" unicode="H" horiz-adv-x="418" 
d="M126 0h-78v700h78v-299h166v299h78v-700h-78v330h-166v-330z" />
    <glyph glyph-name="I" unicode="I" horiz-adv-x="173" 
d="M126 0h-78v700h78v-700z" />
    <glyph glyph-name="J" unicode="J" horiz-adv-x="259" 
d="M68 -4q-33 0 -51 6v71q19 -6 41 -6q41 0 60 21t19 67v545h78v-543q0 -82 -36 -121.5t-111 -39.5z" />
    <glyph glyph-name="K" unicode="K" horiz-adv-x="408" 
d="M392 0h-82l-117 346l-67 -121v-225h-78v700h78v-345l183 345h81l-145 -262z" />
    <glyph glyph-name="L" unicode="L" horiz-adv-x="342" 
d="M326 0h-278v700h78v-629h200v-71z" />
    <glyph glyph-name="M" unicode="M" horiz-adv-x="527" 
d="M117 0h-69v700h113l103 -559l102 559h114v-700h-75v584l-111 -584h-66l-111 584v-584z" />
    <glyph glyph-name="N" unicode="N" horiz-adv-x="425" 
d="M119 0h-71v700h100l158 -500v500h71v-700h-81l-177 569v-569z" />
    <glyph glyph-name="O" unicode="O" 
d="M200 -10q-77 0 -118.5 45t-41.5 128v375q0 83 41.5 127.5t118.5 44.5q78 0 119.5 -44.5t41.5 -127.5v-375q0 -83 -41.5 -128t-119.5 -45zM200 61q83 0 83 97v385q0 96 -83 96q-82 0 -82 -96v-385q0 -97 82 -97z" />
    <glyph glyph-name="P" unicode="P" horiz-adv-x="383" 
d="M126 0h-78v700h153q158 0 158 -170v-60q0 -169 -158 -169h-75v-301zM126 629v-257h75q42 0 61 21.5t19 72.5v69q0 51 -19 72.5t-61 21.5h-75z" />
    <glyph glyph-name="Q" unicode="Q" 
d="M372 6h15v-71h-23q-75 0 -94 67q-30 -12 -70 -12q-77 0 -118.5 45t-41.5 128v375q0 83 41.5 127.5t118.5 44.5q78 0 119.5 -44.5t41.5 -127.5v-375q0 -84 -42 -129q12 -28 53 -28zM200 61q83 0 83 97v385q0 96 -83 96q-82 0 -82 -96v-385q0 -97 82 -97z" />
    <glyph glyph-name="R" unicode="R" horiz-adv-x="401" 
d="M126 0h-78v700h153q83 0 120.5 -38.5t37.5 -120.5v-43q0 -116 -81 -141v-1q82 -21 82 -146v-125q0 -58 10 -85h-79q-9 30 -9 85v129q0 56 -21 79t-72 23h-63v-316zM126 629v-242h63q48 0 70 22.5t22 73.5v50q0 51 -19 73.5t-63 22.5h-73z" />
    <glyph glyph-name="S" unicode="S" horiz-adv-x="369" 
d="M28 160v39h74v-45q0 -93 81 -93q82 0 82 94q0 47 -24 85q-22 37 -84 88q-72 59 -101 107q-28 47 -28 108q0 79 41 123t116 44t114.5 -44t39.5 -125v-28h-74v33q0 93 -80 93t-80 -91q0 -43 24 -79t87 -87q72 -60 99 -109q28 -47 28 -112q0 -82 -41.5 -126.5t-117.5 -44.5
t-116 44t-40 126z" />
    <glyph glyph-name="T" unicode="T" horiz-adv-x="359" 
d="M219 0h-78v629h-124v71h326v-71h-124v-629z" />
    <glyph glyph-name="U" unicode="U" horiz-adv-x="403" 
d="M202 -10q-78 0 -118 44.5t-40 128.5v537h78v-543q0 -96 81 -96t81 96v543h76v-537q0 -84 -40.5 -128.5t-117.5 -44.5z" />
    <glyph glyph-name="V" unicode="V" horiz-adv-x="388" 
d="M247 0h-104l-125 700h79l101 -594l101 594h72z" />
    <glyph glyph-name="W" unicode="W" horiz-adv-x="558" 
d="M211 0h-105l-86 700h76l70 -592l72 592h88l73 -592l70 592h69l-86 -700h-100l-70 546z" />
    <glyph glyph-name="X" unicode="X" 
d="M91 0h-75l138 358l-132 342h83l98 -262l100 262h75l-132 -342l138 -358h-83l-105 279z" />
    <glyph glyph-name="Y" unicode="Y" horiz-adv-x="389" 
d="M234 0h-78v307l-141 393h83l100 -292l100 292h77l-141 -393v-307z" />
    <glyph glyph-name="Z" unicode="Z" horiz-adv-x="355" 
d="M332 0h-311v70l227 559h-217v71h301v-69l-227 -560h227v-71z" />
    <glyph glyph-name="bracketleft" unicode="[" horiz-adv-x="264" 
d="M231 -100h-167v800h167v-60h-95v-680h95v-60z" />
    <glyph glyph-name="backslash" unicode="\" horiz-adv-x="373" 
d="M358 -100h-67l-276 800h67z" />
    <glyph glyph-name="bracketright" unicode="]" horiz-adv-x="264" 
d="M201 -100h-167v60h95v680h-95v60h167v-800z" />
    <glyph glyph-name="asciicircum" unicode="^" 
d="M98 431h-69l143 269h57l142 -269h-68l-103 193z" />
    <glyph glyph-name="underscore" unicode="_" horiz-adv-x="300" 
d="M300 -102h-300v50h300v-50z" />
    <glyph glyph-name="grave" unicode="`" horiz-adv-x="500" 
d="M299 565h-61l-96 128h87z" />
    <glyph glyph-name="a" unicode="a" horiz-adv-x="367" 
d="M332 0h-69q-5 19 -8 68q-31 -78 -117 -78q-52 0 -82 33.5t-30 90.5q0 58 28.5 95.5t96.5 69.5q62 28 79 42q16 13 16 40v12q0 75 -65 75q-33 0 -51.5 -20t-18.5 -57v-15h-71v11q0 70 37 108t105 38q139 0 139 -152v-224q0 -88 11 -137zM164 56q38 0 60 30t22 84v101
q-11 -15 -73 -47q-71 -36 -71 -99q0 -69 62 -69z" />
    <glyph glyph-name="b" unicode="b" horiz-adv-x="384" 
d="M226 513q118 0 118 -145v-232q0 -146 -118 -146q-82 0 -113 81l-10 -71h-55v700h75v-247q35 60 103 60zM269 142v220q0 84 -65 84q-37 0 -59 -29.5t-22 -82.5v-165q0 -53 22 -82.5t59 -29.5q65 0 65 85z" />
    <glyph glyph-name="c" unicode="c" horiz-adv-x="359" 
d="M185 -10q-72 0 -109.5 41.5t-37.5 119.5v202q0 78 37.5 119t109.5 41q71 0 107.5 -41.5t36.5 -118.5v-22h-73v29q0 86 -71 86t-71 -86v-216q0 -87 71 -87t71 87v39h73v-32q0 -78 -36.5 -119.5t-107.5 -41.5z" />
    <glyph glyph-name="d" unicode="d" horiz-adv-x="384" 
d="M347 0h-69q-7 20 -8 68q-33 -78 -113 -78q-117 0 -117 146v232q0 145 117 145q69 0 104 -60v247h75v-563q0 -88 11 -137zM180 57q37 0 59 29.5t22 82.5v165q0 53 -22 82.5t-59 29.5q-64 0 -64 -84v-220q0 -85 64 -85z" />
    <glyph glyph-name="e" unicode="e" horiz-adv-x="370" 
d="M187 513q72 0 110.5 -42t38.5 -120v-111h-222v-94q0 -89 74 -89q75 0 75 89v15h73v-8q0 -78 -38.5 -120.5t-110.5 -42.5t-110.5 42.5t-38.5 120.5v198q0 78 38 120t111 42zM114 358v-56h148v56q0 88 -75 88q-73 0 -73 -88z" />
    <glyph glyph-name="f" unicode="f" horiz-adv-x="262" 
d="M205 643q-26 0 -37.5 -12.5t-11.5 -43.5v-84h91v-64h-91v-439h-75v439h-64v64h64v93q0 114 110 114q35 0 56 -10v-65q-21 8 -42 8z" />
    <glyph glyph-name="g" unicode="g" horiz-adv-x="382" 
d="M268 436l1 67h65v-518q0 -76 -35 -113t-112 -37q-144 0 -144 129v4h72v-7q0 -63 71 -63q73 0 73 82v92q-35 -60 -103 -60q-117 0 -117 146v210q0 145 117 145q80 0 112 -77zM179 79q36 0 58 29.5t22 82.5v143q0 53 -22 82.5t-58 29.5q-65 0 -65 -84v-198q0 -85 65 -85z
" />
    <glyph glyph-name="h" unicode="h" horiz-adv-x="385" 
d="M225 513q116 0 116 -145v-368h-76v358q0 88 -63 88q-36 0 -57.5 -29.5t-21.5 -82.5v-334h-75v700h75v-245q34 58 102 58z" />
    <glyph glyph-name="i" unicode="i" horiz-adv-x="171" 
d="M123 575h-75v108h75v-108zM123 0h-75v503h75v-503z" />
    <glyph glyph-name="j" unicode="j" horiz-adv-x="171" 
d="M123 575h-75v108h75v-108zM30 -165q-29 0 -48 10v64q18 -7 34 -7q17 0 24.5 8.5t7.5 29.5v563h75v-569q0 -99 -93 -99z" />
    <glyph glyph-name="k" unicode="k" horiz-adv-x="383" 
d="M367 0h-82l-101 240l-61 -91v-149h-75v700h75v-442l157 245h81l-127 -188z" />
    <glyph glyph-name="l" unicode="l" horiz-adv-x="171" 
d="M123 0h-75v700h75v-700z" />
    <glyph glyph-name="m" unicode="m" horiz-adv-x="590" 
d="M433 513q113 0 113 -141v-372h-75v367q0 79 -60 79q-34 0 -55 -29.5t-21 -82.5v-334h-76v367q0 79 -60 79q-34 0 -55 -29.5t-21 -82.5v-334h-75v503h65l1 -66q31 76 108 76q81 0 104 -74q32 74 107 74z" />
    <glyph glyph-name="n" unicode="n" horiz-adv-x="385" 
d="M225 513q116 0 116 -145v-368h-76v358q0 88 -63 88q-36 0 -57.5 -29.5t-21.5 -82.5v-334h-75v503h65l1 -66q31 76 111 76z" />
    <glyph glyph-name="o" unicode="o" horiz-adv-x="371" 
d="M186 -10q-72 0 -110 42.5t-38 120.5v198q0 78 38 120t110 42q71 0 109.5 -42t38.5 -120v-198q0 -78 -38.5 -120.5t-109.5 -42.5zM186 57q72 0 72 89v212q0 88 -72 88q-73 0 -73 -88v-212q0 -89 73 -89z" />
    <glyph glyph-name="p" unicode="p" horiz-adv-x="384" 
d="M226 513q118 0 118 -145v-232q0 -146 -118 -146q-68 0 -103 60v-205h-75v658h65l1 -68q32 78 112 78zM268 142v220q0 84 -64 84q-37 0 -59 -29.5t-22 -82.5v-165q0 -53 22 -82.5t59 -29.5q64 0 64 85z" />
    <glyph glyph-name="q" unicode="q" horiz-adv-x="384" 
d="M271 432l10 71h55v-658h-75v205q-35 -60 -103 -60q-118 0 -118 146v232q0 145 118 145q82 0 113 -81zM180 57q37 0 59 29.5t22 82.5v165q0 53 -22 82.5t-59 29.5q-64 0 -64 -84v-220q0 -85 64 -85z" />
    <glyph glyph-name="r" unicode="r" horiz-adv-x="264" 
d="M219 513q21 0 33 -6v-74q-15 5 -31 5q-98 0 -98 -145v-293h-75v503h65l1 -83q26 93 105 93z" />
    <glyph glyph-name="s" unicode="s" horiz-adv-x="339" 
d="M173 -10q-69 0 -107.5 38.5t-38.5 106.5v17h73v-19q0 -77 69 -77t69 73q0 22 -14 41q-8 12 -19 21.5t-21.5 15.5t-32.5 17q-37 20 -44 25q-17 11 -35 28q-40 36 -40 102q0 62 36 98t100 36q63 0 99.5 -37.5t36.5 -102.5v-10h-71v12q0 73 -64 73q-29 0 -46.5 -18
t-17.5 -50q0 -24 14 -44q13 -17 27.5 -27t48.5 -27q49 -25 79 -53q39 -35 39 -99q0 -66 -37 -103t-103 -37z" />
    <glyph glyph-name="t" unicode="t" horiz-adv-x="265" 
d="M245 503v-64h-91v-326q0 -30 11 -43t38 -13q21 0 42 8v-65q-21 -10 -56 -10q-111 0 -111 115v334h-62v64h65l8 145h65v-145h91z" />
    <glyph glyph-name="u" unicode="u" horiz-adv-x="385" 
d="M262 169v334h75v-503h-65l-1 67q-32 -77 -111 -77q-116 0 -116 146v367h76v-358q0 -88 63 -88q36 0 57.5 29.5t21.5 82.5z" />
    <glyph glyph-name="v" unicode="v" horiz-adv-x="357" 
d="M226 0h-94l-114 503h77l87 -402l87 402h71z" />
    <glyph glyph-name="w" unicode="w" horiz-adv-x="534" 
d="M204 0h-97l-87 503h74l70 -399l67 399h79l67 -399l70 399h68l-87 -503h-92l-66 363z" />
    <glyph glyph-name="x" unicode="x" horiz-adv-x="367" 
d="M92 0h-75l121 258l-115 245h82l82 -182l82 182h75l-115 -245l121 -258h-83l-87 197z" />
    <glyph glyph-name="y" unicode="y" horiz-adv-x="355" 
d="M267 503h70l-106 -468l-21 -92q-13 -58 -41 -83t-80 -25q-34 0 -51 10v65q18 -8 40 -8q27 0 39 11t19 41l9 40l-128 509h77l91 -383z" />
    <glyph glyph-name="z" unicode="z" horiz-adv-x="328" 
d="M302 0h-278v63l198 376h-188v64h268v-63l-198 -375h198v-65z" />
    <glyph glyph-name="braceleft" unicode="{" horiz-adv-x="264" 
d="M237 -100h-45q-103 0 -103 108v188q0 42 -13.5 58t-50.5 16v61q37 0 50.5 15.5t13.5 56.5v190q0 53 27 80t76 27h45v-61h-17q-34 0 -46 -15.5t-12 -56.5v-173q0 -76 -59 -93v-2q59 -15 59 -94v-172q0 -41 12 -56.5t46 -15.5h17v-61z" />
    <glyph glyph-name="bar" unicode="|" horiz-adv-x="300" 
d="M183 -200h-66v1001h66v-1001z" />
    <glyph glyph-name="braceright" unicode="}" horiz-adv-x="264" 
d="M72 -100h-44v61h16q34 0 46.5 15.5t12.5 56.5v172q0 80 59 94v2q-59 17 -59 93v173q0 41 -12.5 56.5t-46.5 15.5h-16v61h44q49 0 76 -27t27 -80v-190q0 -41 14 -56.5t51 -15.5v-61q-37 0 -51 -16t-14 -58v-188q0 -108 -103 -108z" />
    <glyph glyph-name="asciitilde" unicode="~" 
d="M61 235l-44 33q29 50 54 72t59 22q32 0 76 -31q47 -30 64 -30q19 0 33 13.5t37 50.5l44 -33q-28 -50 -53.5 -72t-59.5 -22q-30 0 -76 31q-45 30 -64 30t-33 -13.5t-37 -50.5z" />
    <glyph glyph-name="uni00A0" unicode="&#xa0;" horiz-adv-x="163" 
 />
    <glyph glyph-name="exclamdown" unicode="&#xa1;" horiz-adv-x="198" 
d="M139 403h-79v100h79v-100zM138 -198h-78v330l10 196h58l10 -196v-330z" />
    <glyph glyph-name="cent" unicode="&#xa2;" 
d="M360 481v-31h-73v36q0 70 -51 86v-245h-65v243q-44 -20 -44 -84v-272q0 -44 21 -67.5t58 -23.5q39 0 60 23.5t21 67.5v56h73v-51q0 -70 -32 -113t-92 -52v-74h-65v74q-59 10 -90.5 52.5t-31.5 112.5v262q0 70 31.5 112.5t90.5 52.5v64h65v-64q60 -9 92 -52t32 -113z" />
    <glyph glyph-name="sterling" unicode="&#xa3;" 
d="M359 0h-318v67q45 29 71 73.5t26 91.5q0 17 -3 34h-91v62h78l-24 50q-10 20 -25 53q-21 54 -21 118q0 73 40 117t115 44q77 0 117 -45t40 -127v-33h-74v38q0 96 -81 96q-79 0 -79 -96q0 -43 11 -82q12 -37 30 -78q20 -40 24 -55h135v-62h-121q2 -24 2 -28q0 -83 -81 -167
h229v-71z" />
    <glyph glyph-name="currency" unicode="&#xa4;" 
d="M303 282l56 -53l-37 -37l-52 57q-32 -21 -69 -21t-69 21l-52 -57l-37 37l56 53q-21 31 -21 68t21 68l-56 53l37 37l52 -56q32 21 69 21t69 -21l52 56l37 -37l-56 -53q20 -29 20 -68t-20 -68zM266 350q0 29 -18 47.5t-47 18.5t-47.5 -18.5t-18.5 -47.5t18.5 -47t47.5 -18
t47 18.5t18 46.5z" />
    <glyph glyph-name="yen" unicode="&#xa5;" 
d="M304 700h76l-137 -380h101v-54h-105v-87h105v-55h-105v-124h-78v124h-101v55h101v87h-101v54h97l-137 380h83l100 -292z" />
    <glyph glyph-name="brokenbar" unicode="&#xa6;" horiz-adv-x="300" 
d="M183 400h-66v400h66v-400zM183 -200h-66v400h66v-400z" />
    <glyph glyph-name="section" unicode="&#xa7;" horiz-adv-x="415" 
d="M301 157q58 -46 58 -119q0 -65 -41 -105t-110 -40t-110 41t-41 110v12h72v-14q0 -40 21 -62t57 -22q34 0 56 21t22 57q0 28 -18 50q-11 14 -25.5 24.5t-24 15l-42.5 20.5q-42 20 -53 26q-10 6 -43 31q-46 39 -46 108q0 100 82 136q-58 43 -58 119q0 65 41 104.5t110 39.5
q67 0 109 -41t42 -109v-12h-72v14q0 39 -21.5 61t-57.5 22q-33 0 -55 -21.5t-22 -56.5q0 -41 34 -68q32 -22 76 -42q32 -15 52 -27q16 -9 43 -30q47 -38 47 -108q0 -101 -82 -135zM108 319q0 -43 34 -71q29 -22 77 -44l17 -8q33 4 52 27.5t19 60.5q0 44 -35 71
q-25 19 -75 44l-19 9q-32 -4 -51 -27.5t-19 -61.5z" />
    <glyph glyph-name="dieresis" unicode="&#xa8;" horiz-adv-x="500" 
d="M222 575h-70v108h70v-108zM348 575h-70v108h70v-108z" />
    <glyph glyph-name="copyright" unicode="&#xa9;" horiz-adv-x="754" 
d="M626 92q-99 -102 -249 -102t-249 102q-99 104 -99 258q0 155 99 257q99 103 249 103t249 -103q99 -102 99 -257q0 -154 -99 -258zM377 44q127 0 210 86q83 88 83 220q0 133 -83 219q-83 87 -210 87t-210 -86q-82 -85 -82 -220t82 -220q83 -86 210 -86zM374 131
q-110 0 -110 119v199q0 121 110 121q109 0 109 -121v-31h-55v35q0 63 -53 63t-53 -63v-206q0 -62 53 -62t53 62v51h55v-48q0 -57 -27.5 -88t-81.5 -31z" />
    <glyph glyph-name="ordfeminine" unicode="&#xaa;" horiz-adv-x="281" 
d="M117 542q45 20 55 30q12 10 12 29v9q0 53 -46 53q-51 0 -51 -55v-11h-52v9q0 49 27 76.5t76 27.5q100 0 100 -109v-161q0 -69 7 -98h-49q-3 10 -6 45q-23 -53 -82 -53q-39 0 -60.5 23.5t-21.5 65.5q0 43 20.5 69.5t70.5 49.5zM124 382q60 0 60 81v73q-8 -12 -53 -34
q-51 -26 -51 -71q0 -49 44 -49zM239 228h-206v49h206v-49z" />
    <glyph glyph-name="guillemotleft" unicode="&#xab;" horiz-adv-x="305" 
d="M150 196h-58l-65 104l65 100h58l-51 -100zM276 196h-58l-64 104l64 100h58l-50 -100z" />
    <glyph glyph-name="logicalnot" unicode="&#xac;" 
d="M359 165h-59v143h-281v59h340v-202z" />
    <glyph glyph-name="uni00AD" unicode="&#xad;" horiz-adv-x="265" 
d="M235 268h-205v64h205v-64z" />
    <glyph glyph-name="registered" unicode="&#xae;" horiz-adv-x="754" 
d="M626 92q-99 -102 -249 -102t-249 102q-99 104 -99 258q0 155 99 257q99 103 249 103t249 -103q99 -102 99 -257q0 -154 -99 -258zM377 44q127 0 210 86q83 88 83 220q0 133 -83 219q-83 87 -210 87t-210 -86q-82 -85 -82 -220t82 -220q83 -86 210 -86zM331 136h-58v428
h110q55 0 82 -26.5t27 -82.5v-13q0 -74 -55 -93v-1q55 -15 55 -91v-62q0 -40 9 -59h-60q-7 20 -7 60v58q0 36 -14 50t-49 14h-40v-182zM331 510v-138h42q32 0 46.5 14t14.5 47v16q0 32 -12.5 46.5t-41.5 14.5h-49z" />
    <glyph glyph-name="overscore" unicode="&#xaf;" horiz-adv-x="500" 
d="M356 600h-212v59h212v-59z" />
    <glyph glyph-name="degree" unicode="&#xb0;" 
d="M283 511q-34 -34 -83 -34t-83 34q-33 35 -33 83q0 49 33 82q34 34 83 34t83 -34q34 -33 34 -82t-34 -83zM158 551q17 -17 42 -17t42 17q18 18 18 43t-18 42q-17 18 -42 18t-42 -18q-17 -17 -17 -42t17 -43z" />
    <glyph glyph-name="plusminus" unicode="&#xb1;" 
d="M360 113h-320v59h130v127h-130v60h130v130h60v-130h130v-60h-130v-127h130v-59z" />
    <glyph glyph-name="uni00B2" unicode="&#xb2;" horiz-adv-x="283" 
d="M240 351h-197v43q0 50 17.5 89t59.5 81q39 40 55 69.5t16 62.5q0 61 -48 61q-49 0 -49 -58v-37h-51v34q0 52 25.5 80.5t75.5 28.5t75.5 -28t25.5 -79q0 -42 -19.5 -79t-65.5 -85q-37 -40 -50.5 -66t-13.5 -58v-10h144v-49z" />
    <glyph glyph-name="uni00B3" unicode="&#xb3;" horiz-adv-x="283" 
d="M138 341q-49 0 -75 29t-26 82v34h51v-38q0 -58 49 -58t49 63v42q0 64 -54 64h-26v48h29q51 0 51 59v27q0 64 -49 64t-49 -58v-26h-50v22q0 110 101 110t101 -110v-20q0 -71 -51 -90v-2q51 -17 51 -92v-39q0 -111 -102 -111z" />
    <glyph glyph-name="acute" unicode="&#xb4;" horiz-adv-x="500" 
d="M263 565h-62l71 128h87z" />
    <glyph glyph-name="uni00B5" unicode="&#xb5;" horiz-adv-x="388" 
d="M265 169v334h76v-503h-66l-1 65q-32 -75 -111 -75q-18 0 -40 5v-150h-75v658h75v-358q0 -88 63 -88q37 0 58 29t21 83z" />
    <glyph glyph-name="paragraph" unicode="&#xb6;" horiz-adv-x="448" 
d="M250 -97h-61v401q-153 3 -153 162v64q0 170 163 170h190v-797h-61v738h-78v-738z" />
    <glyph glyph-name="middot" unicode="&#xb7;" horiz-adv-x="183" 
d="M131 250h-79v100h79v-100z" />
    <glyph glyph-name="cedilla" unicode="&#xb8;" horiz-adv-x="500" 
d="M250 -155q-89 0 -89 59v8h56v-8q0 -24 32 -24q36 0 36 27t-39 27h-10v76h39v-54q67 0 67 -50q0 -35 -22 -48t-70 -13z" />
    <glyph glyph-name="uni00B9" unicode="&#xb9;" horiz-adv-x="283" 
d="M192 351h-54v358q-33 -11 -76 -12v40q39 1 60 14t33 44h37v-444z" />
    <glyph glyph-name="ordmasculine" unicode="&#xba;" horiz-adv-x="281" 
d="M141 334q-51 0 -78.5 30.5t-27.5 86.5v143q0 56 27.5 86t78.5 30q50 0 78 -30.5t28 -85.5v-143q0 -56 -28 -86.5t-78 -30.5zM141 383q52 0 52 63v153q0 63 -52 63q-53 0 -53 -63v-153q0 -63 53 -63zM243 229h-205v48h205v-48z" />
    <glyph glyph-name="guillemotright" unicode="&#xbb;" horiz-adv-x="305" 
d="M87 196h-57l49 104l-49 100h57l65 -100zM214 196h-58l50 104l-50 100h58l64 -100z" />
    <glyph glyph-name="onequarter" unicode="&#xbc;" horiz-adv-x="653" 
d="M192 256h-54v358q-33 -11 -76 -12v40q39 1 60 14t33 44h37v-444zM218 0h-54l272 700h54zM593 0h-54v87h-142v49l137 308h59v-309h35v-48h-35v-87zM540 349l-93 -214h93v214z" />
    <glyph glyph-name="onehalf" unicode="&#xbd;" horiz-adv-x="653" 
d="M192 256h-54v358q-33 -11 -76 -12v40q39 1 60 14t33 44h37v-444zM218 0h-54l272 700h54zM610 0h-197v43q0 51 17.5 89.5t59.5 80.5q39 40 55 69.5t16 62.5q0 61 -48 61q-49 0 -49 -58v-37h-51v34q0 52 25.5 80.5t75.5 28.5t75.5 -28t25.5 -79q0 -42 -19.5 -79t-65.5 -85
q-37 -40 -50.5 -66t-13.5 -58v-10h144v-49z" />
    <glyph glyph-name="threequarters" unicode="&#xbe;" horiz-adv-x="653" 
d="M138 246q-49 0 -75 29t-26 82v34h51v-38q0 -58 49 -58t49 63v42q0 64 -54 64h-26v48h29q51 0 51 59v27q0 64 -49 64t-49 -58v-26h-50v22q0 110 101 110t101 -110v-20q0 -70 -51 -90v-2q51 -16 51 -92v-39q0 -111 -102 -111zM218 0h-54l272 700h54zM593 0h-54v87h-142v49
l137 308h59v-309h35v-48h-35v-87zM540 349l-93 -214h93v214z" />
    <glyph glyph-name="questiondown" unicode="&#xbf;" horiz-adv-x="362" 
d="M238 403h-79v100h79v-100zM25 -38q0 88 74 183q36 47 50.5 78.5t14.5 66.5v38h68v-41q0 -73 -63 -165q-37 -52 -51.5 -87t-14.5 -78q0 -93 80 -93t80 96v64h74v-59q0 -82 -39.5 -127t-116.5 -45t-116.5 44t-39.5 125z" />
    <glyph glyph-name="Agrave" unicode="&#xc0;" 
d="M179 880l70 -128h-61l-96 128h87zM383 0h-79l-26 149h-162l-26 -149h-73l130 700h105zM196 611l-68 -394h138z" />
    <glyph glyph-name="Aacute" unicode="&#xc1;" 
d="M222 880h87l-96 -128h-62zM383 0h-79l-26 149h-162l-26 -149h-73l130 700h105zM196 611l-68 -394h138z" />
    <glyph glyph-name="Acircumflex" unicode="&#xc2;" 
d="M256 752l-56 84l-55 -84h-62l78 128h79l77 -128h-61zM383 0h-79l-26 149h-162l-26 -149h-73l130 700h105zM196 611l-68 -394h138z" />
    <glyph glyph-name="Atilde" unicode="&#xc3;" 
d="M159 806q-23 0 -39 -40l-41 23q32 74 80 74q25 0 53 -21q21 -15 32 -15q23 0 39 40l41 -23q-32 -74 -80 -74q-26 0 -53 21q-21 15 -32 15zM383 0h-79l-26 149h-162l-26 -149h-73l130 700h105zM196 611l-68 -394h138z" />
    <glyph glyph-name="Adieresis" unicode="&#xc4;" 
d="M102 870h70v-108h-70v108zM228 870h70v-108h-70v108zM383 0h-79l-26 149h-162l-26 -149h-73l130 700h105zM196 611l-68 -394h138z" />
    <glyph glyph-name="Aring" unicode="&#xc5;" 
d="M257 775q-23 -23 -57 -23t-57 23t-23 56t23 56t57 23t57 -23t23 -56t-23 -56zM225 858q-10 11 -25 11t-25 -11t-10 -27t10 -27q10 -10 25 -10t25 10q11 11 11 27t-11 27zM383 0h-79l-26 149h-162l-26 -149h-73l130 700h105zM196 611l-68 -394h138z" />
    <glyph glyph-name="AE" unicode="&#xc6;" horiz-adv-x="581" 
d="M560 700v-71h-208v-228h169v-71h-169v-259h208v-71h-286v149h-139l-45 -149h-75l217 700h328zM274 605l-118 -388h118v388z" />
    <glyph glyph-name="Ccedilla" unicode="&#xc7;" horiz-adv-x="382" 
d="M352 543v-72h-74v77q0 44 -21.5 67.5t-58.5 23.5t-58.5 -23.5t-21.5 -67.5v-396q0 -44 21.5 -67.5t58.5 -23.5t58.5 23.5t21.5 67.5v98h74v-93q0 -73 -34.5 -116t-99.5 -50v-35q67 0 67 -50q0 -35 -22 -48t-70 -13q-89 0 -89 59v8h56v-8q0 -24 32 -24q36 0 36 27t-39 27
h-10v57q-66 4 -102.5 48t-36.5 118v386q0 79 40.5 123t115.5 44t115.5 -44t40.5 -123z" />
    <glyph glyph-name="Egrave" unicode="&#xc8;" horiz-adv-x="356" 
d="M240 752h-61l-96 128h87zM335 0h-287v700h287v-71h-209v-228h170v-71h-170v-259h209v-71z" />
    <glyph glyph-name="Eacute" unicode="&#xc9;" horiz-adv-x="356" 
d="M204 752h-62l71 128h87zM335 0h-287v700h287v-71h-209v-228h170v-71h-170v-259h209v-71z" />
    <glyph glyph-name="Ecircumflex" unicode="&#xca;" horiz-adv-x="356" 
d="M136 752h-62l78 128h79l77 -128h-61l-56 84zM335 0h-287v700h287v-71h-209v-228h170v-71h-170v-259h209v-71z" />
    <glyph glyph-name="Edieresis" unicode="&#xcb;" horiz-adv-x="356" 
d="M163 762h-70v108h70v-108zM289 762h-70v108h70v-108zM335 0h-287v700h287v-71h-209v-228h170v-71h-170v-259h209v-71z" />
    <glyph glyph-name="Igrave" unicode="&#xcc;" horiz-adv-x="173" 
d="M136 752h-61l-97 128h88zM126 0h-78v700h78v-700z" />
    <glyph glyph-name="Iacute" unicode="&#xcd;" horiz-adv-x="173" 
d="M100 752h-62l71 128h87zM126 0h-78v700h78v-700z" />
    <glyph glyph-name="Icircumflex" unicode="&#xce;" horiz-adv-x="173" 
d="M32 752h-62l78 128h79l77 -128h-61l-56 84zM126 0h-78v700h78v-700z" />
    <glyph glyph-name="Idieresis" unicode="&#xcf;" horiz-adv-x="173" 
d="M59 762h-70v108h70v-108zM185 762h-70v108h70v-108zM126 0h-78v700h78v-700z" />
    <glyph glyph-name="Eth" unicode="&#xd0;" horiz-adv-x="421" 
d="M62 700h160q159 0 159 -170v-360q0 -170 -159 -170h-160v331h-45v68h45v301zM303 167v367q0 50 -19.5 72.5t-62.5 22.5h-81v-230h78v-68h-78v-260h81q42 0 62 22.5t20 73.5z" />
    <glyph glyph-name="Ntilde" unicode="&#xd1;" horiz-adv-x="425" 
d="M133 766l-41 23q32 74 80 74q24 0 53 -21q21 -15 32 -15q23 0 39 40l41 -23q-32 -74 -80 -74q-26 0 -53 21q-21 15 -32 15q-23 0 -39 -40zM119 0h-71v700h100l158 -500v500h71v-700h-81l-177 569v-569z" />
    <glyph glyph-name="Ograve" unicode="&#xd2;" 
d="M249 752h-61l-96 128h87zM200 -10q-77 0 -118.5 45t-41.5 128v375q0 83 41.5 127.5t118.5 44.5q78 0 119.5 -44.5t41.5 -127.5v-375q0 -83 -41.5 -128t-119.5 -45zM200 61q83 0 83 97v385q0 96 -83 96q-82 0 -82 -96v-385q0 -97 82 -97z" />
    <glyph glyph-name="Oacute" unicode="&#xd3;" 
d="M213 752h-62l71 128h87zM200 -10q-77 0 -118.5 45t-41.5 128v375q0 83 41.5 127.5t118.5 44.5q78 0 119.5 -44.5t41.5 -127.5v-375q0 -83 -41.5 -128t-119.5 -45zM200 61q83 0 83 97v385q0 96 -83 96q-82 0 -82 -96v-385q0 -97 82 -97z" />
    <glyph glyph-name="Ocircumflex" unicode="&#xd4;" 
d="M145 752h-62l78 128h79l77 -128h-61l-56 84zM200 -10q-77 0 -118.5 45t-41.5 128v375q0 83 41.5 127.5t118.5 44.5q78 0 119.5 -44.5t41.5 -127.5v-375q0 -83 -41.5 -128t-119.5 -45zM200 61q83 0 83 97v385q0 96 -83 96q-82 0 -82 -96v-385q0 -97 82 -97z" />
    <glyph glyph-name="Otilde" unicode="&#xd5;" 
d="M120 766l-41 23q32 74 80 74q25 0 53 -21q21 -15 32 -15q23 0 39 40l41 -23q-32 -74 -80 -74q-26 0 -53 21q-21 15 -32 15q-23 0 -39 -40zM200 -10q-77 0 -118.5 45t-41.5 128v375q0 83 41.5 127.5t118.5 44.5q78 0 119.5 -44.5t41.5 -127.5v-375q0 -83 -41.5 -128
t-119.5 -45zM200 61q83 0 83 97v385q0 96 -83 96q-82 0 -82 -96v-385q0 -97 82 -97z" />
    <glyph glyph-name="Odieresis" unicode="&#xd6;" 
d="M172 762h-70v108h70v-108zM298 762h-70v108h70v-108zM200 -10q-77 0 -118.5 45t-41.5 128v375q0 83 41.5 127.5t118.5 44.5q78 0 119.5 -44.5t41.5 -127.5v-375q0 -83 -41.5 -128t-119.5 -45zM200 61q83 0 83 97v385q0 96 -83 96q-82 0 -82 -96v-385q0 -97 82 -97z" />
    <glyph glyph-name="multiply" unicode="&#xd7;" 
d="M201 260l-114 -117l-41 41l114 116l-113 116l41 41l113 -116l114 117l41 -41l-114 -117l114 -116l-41 -41z" />
    <glyph glyph-name="Oslash" unicode="&#xd8;" 
d="M323 726l44 -19l-27 -69q21 -40 21 -100v-375q0 -83 -41.5 -128t-119.5 -45q-63 0 -104 32l-19 -48l-44 19l28 71q-21 39 -21 99v375q0 83 41.5 127.5t118.5 44.5q64 0 105 -31zM118 543v-335l155 391q-19 40 -73 40q-82 0 -82 -96zM283 158v337l-155 -392q20 -42 72 -42
q83 0 83 97z" />
    <glyph glyph-name="Ugrave" unicode="&#xd9;" horiz-adv-x="403" 
d="M251 752h-61l-96 128h87zM202 -10q-78 0 -118 44.5t-40 128.5v537h78v-543q0 -96 81 -96t81 96v543h76v-537q0 -84 -40.5 -128.5t-117.5 -44.5z" />
    <glyph glyph-name="Uacute" unicode="&#xda;" horiz-adv-x="403" 
d="M215 752h-62l71 128h87zM202 -10q-78 0 -118 44.5t-40 128.5v537h78v-543q0 -96 81 -96t81 96v543h76v-537q0 -84 -40.5 -128.5t-117.5 -44.5z" />
    <glyph glyph-name="Ucircumflex" unicode="&#xdb;" horiz-adv-x="403" 
d="M147 752h-62l78 128h79l77 -128h-61l-56 84zM202 -10q-78 0 -118 44.5t-40 128.5v537h78v-543q0 -96 81 -96t81 96v543h76v-537q0 -84 -40.5 -128.5t-117.5 -44.5z" />
    <glyph glyph-name="Udieresis" unicode="&#xdc;" horiz-adv-x="403" 
d="M174 762h-70v108h70v-108zM300 762h-70v108h70v-108zM202 -10q-78 0 -118 44.5t-40 128.5v537h78v-543q0 -96 81 -96t81 96v543h76v-537q0 -84 -40.5 -128.5t-117.5 -44.5z" />
    <glyph glyph-name="Yacute" unicode="&#xdd;" horiz-adv-x="389" 
d="M208 752h-62l71 128h87zM234 0h-78v307l-141 393h83l100 -292l100 292h77l-141 -393v-307z" />
    <glyph glyph-name="Thorn" unicode="&#xde;" horiz-adv-x="383" 
d="M126 0h-78v700h78v-105h75q158 0 158 -170v-60q0 -170 -158 -170h-75v-195zM126 523v-257h75q42 0 61 21.5t19 72.5v69q0 51 -19 72.5t-61 21.5h-75z" />
    <glyph glyph-name="germandbls" unicode="&#xdf;" horiz-adv-x="393" 
d="M238 -10q-35 0 -58 10v66q18 -9 45 -9q73 0 73 79q0 25 -11 42t-37 39q-23 20 -33 31q-35 37 -35 107q0 50 34 99q36 56 36 113q0 77 -63 77q-66 0 -66 -83v-561h-75v556q0 154 143 154q63 0 100 -37t37 -107q0 -65 -39 -125q-31 -46 -31 -87q0 -21 8 -40q12 -26 44 -53
q25 -21 31 -29q32 -34 32 -96q0 -67 -36.5 -106.5t-98.5 -39.5z" />
    <glyph glyph-name="agrave" unicode="&#xe0;" horiz-adv-x="367" 
d="M158 693l70 -128h-61l-96 128h87zM332 0h-69q-5 19 -8 68q-31 -78 -117 -78q-52 0 -82 33.5t-30 90.5q0 58 28.5 95.5t96.5 69.5q62 28 79 42q16 13 16 40v12q0 75 -65 75q-33 0 -51.5 -20t-18.5 -57v-15h-71v11q0 70 37 108t105 38q139 0 139 -152v-224q0 -88 11 -137z
M164 56q38 0 60 30t22 84v101q-11 -15 -73 -47q-71 -36 -71 -99q0 -69 62 -69z" />
    <glyph glyph-name="aacute" unicode="&#xe1;" horiz-adv-x="367" 
d="M201 693h87l-96 -128h-62zM332 0h-69q-5 19 -8 68q-31 -78 -117 -78q-52 0 -82 33.5t-30 90.5q0 58 28.5 95.5t96.5 69.5q62 28 79 42q16 13 16 40v12q0 75 -65 75q-33 0 -51.5 -20t-18.5 -57v-15h-71v11q0 70 37 108t105 38q139 0 139 -152v-224q0 -88 11 -137zM164 56
q38 0 60 30t22 84v101q-11 -15 -73 -47q-71 -36 -71 -99q0 -69 62 -69z" />
    <glyph glyph-name="acircumflex" unicode="&#xe2;" horiz-adv-x="367" 
d="M235 565l-56 84l-55 -84h-62l78 128h79l77 -128h-61zM332 0h-69q-5 19 -8 68q-31 -78 -117 -78q-52 0 -82 33.5t-30 90.5q0 58 28.5 95.5t96.5 69.5q62 28 79 42q16 13 16 40v12q0 75 -65 75q-33 0 -51.5 -20t-18.5 -57v-15h-71v11q0 70 37 108t105 38q139 0 139 -152
v-224q0 -88 11 -137zM164 56q38 0 60 30t22 84v101q-11 -15 -73 -47q-71 -36 -71 -99q0 -69 62 -69z" />
    <glyph glyph-name="atilde" unicode="&#xe3;" horiz-adv-x="367" 
d="M138 619q-23 0 -39 -40l-41 23q32 74 80 74q25 0 53 -21q21 -15 32 -15q23 0 39 40l41 -23q-32 -74 -80 -74q-26 0 -53 21q-21 15 -32 15zM332 0h-69q-5 19 -8 68q-31 -78 -117 -78q-52 0 -82 33.5t-30 90.5q0 58 28.5 95.5t96.5 69.5q62 28 79 42q16 13 16 40v12
q0 75 -65 75q-33 0 -51.5 -20t-18.5 -57v-15h-71v11q0 70 37 108t105 38q139 0 139 -152v-224q0 -88 11 -137zM164 56q38 0 60 30t22 84v101q-11 -15 -73 -47q-71 -36 -71 -99q0 -69 62 -69z" />
    <glyph glyph-name="adieresis" unicode="&#xe4;" horiz-adv-x="367" 
d="M81 683h70v-108h-70v108zM207 683h70v-108h-70v108zM332 0h-69q-5 19 -8 68q-31 -78 -117 -78q-52 0 -82 33.5t-30 90.5q0 58 28.5 95.5t96.5 69.5q62 28 79 42q16 13 16 40v12q0 75 -65 75q-33 0 -51.5 -20t-18.5 -57v-15h-71v11q0 70 37 108t105 38q139 0 139 -152
v-224q0 -88 11 -137zM164 56q38 0 60 30t22 84v101q-11 -15 -73 -47q-71 -36 -71 -99q0 -69 62 -69z" />
    <glyph glyph-name="aring" unicode="&#xe5;" horiz-adv-x="367" 
d="M236 588q-23 -23 -57 -23t-57 23t-23 56t23 56t57 23t57 -23t23 -56t-23 -56zM204 671q-10 11 -25 11t-25 -11t-10 -27t10 -27q10 -10 25 -10t25 10q11 11 11 27t-11 27zM332 0h-69q-5 19 -8 68q-31 -78 -117 -78q-52 0 -82 33.5t-30 90.5q0 58 28.5 95.5t96.5 69.5
q62 28 79 42q16 13 16 40v12q0 75 -65 75q-33 0 -51.5 -20t-18.5 -57v-15h-71v11q0 70 37 108t105 38q139 0 139 -152v-224q0 -88 11 -137zM164 56q38 0 60 30t22 84v101q-11 -15 -73 -47q-71 -36 -71 -99q0 -69 62 -69z" />
    <glyph glyph-name="ae" unicode="&#xe6;" horiz-adv-x="578" 
d="M544 351v-111h-222v-94q0 -89 74 -89q75 0 75 89v15h73v-8q0 -78 -38.5 -120.5t-110.5 -42.5q-91 0 -128 66q-35 -66 -120 -66q-56 0 -88.5 33t-32.5 91t28.5 95.5t96.5 69.5q59 27 79 43q16 13 16 39v12q0 75 -64 75q-33 0 -52 -20t-19 -57v-15h-71v11q0 69 36.5 107.5
t99.5 38.5q84 0 111 -61q31 61 114 61q68 0 105.5 -42t37.5 -120zM395 446q-73 0 -73 -88v-56h148v56q0 88 -75 88zM164 56q39 0 60.5 29.5t21.5 83.5v102q-11 -15 -73 -47q-71 -36 -71 -99q0 -69 62 -69z" />
    <glyph glyph-name="ccedilla" unicode="&#xe7;" horiz-adv-x="359" 
d="M329 353v-22h-73v29q0 86 -71 86t-71 -86v-216q0 -87 71 -87t71 87v39h73v-32q0 -72 -31.5 -113t-92.5 -47v-35q67 0 67 -50q0 -35 -22 -48t-70 -13q-89 0 -89 59v8h56v-8q0 -24 32 -24q36 0 36 27t-39 27h-10v57q-63 5 -95.5 46.5t-32.5 113.5v202q0 78 37.5 119
t109.5 41q71 0 107.5 -41.5t36.5 -118.5z" />
    <glyph glyph-name="egrave" unicode="&#xe8;" horiz-adv-x="370" 
d="M165 693l70 -128h-61l-96 128h87zM187 513q72 0 110.5 -42t38.5 -120v-111h-222v-94q0 -89 74 -89q75 0 75 89v15h73v-8q0 -78 -38.5 -120.5t-110.5 -42.5t-110.5 42.5t-38.5 120.5v198q0 78 38 120t111 42zM114 358v-56h148v56q0 88 -75 88q-73 0 -73 -88z" />
    <glyph glyph-name="eacute" unicode="&#xe9;" horiz-adv-x="370" 
d="M208 693h87l-96 -128h-62zM187 513q72 0 110.5 -42t38.5 -120v-111h-222v-94q0 -89 74 -89q75 0 75 89v15h73v-8q0 -78 -38.5 -120.5t-110.5 -42.5t-110.5 42.5t-38.5 120.5v198q0 78 38 120t111 42zM114 358v-56h148v56q0 88 -75 88q-73 0 -73 -88z" />
    <glyph glyph-name="ecircumflex" unicode="&#xea;" horiz-adv-x="370" 
d="M242 565l-56 84l-55 -84h-62l78 128h79l77 -128h-61zM187 513q72 0 110.5 -42t38.5 -120v-111h-222v-94q0 -89 74 -89q75 0 75 89v15h73v-8q0 -78 -38.5 -120.5t-110.5 -42.5t-110.5 42.5t-38.5 120.5v198q0 78 38 120t111 42zM114 358v-56h148v56q0 88 -75 88
q-73 0 -73 -88z" />
    <glyph glyph-name="edieresis" unicode="&#xeb;" horiz-adv-x="370" 
d="M88 683h70v-108h-70v108zM214 683h70v-108h-70v108zM187 513q72 0 110.5 -42t38.5 -120v-111h-222v-94q0 -89 74 -89q75 0 75 89v15h73v-8q0 -78 -38.5 -120.5t-110.5 -42.5t-110.5 42.5t-38.5 120.5v198q0 78 38 120t111 42zM114 358v-56h148v56q0 88 -75 88
q-73 0 -73 -88z" />
    <glyph glyph-name="igrave" unicode="&#xec;" horiz-adv-x="171" 
d="M134 565h-61l-97 128h88zM123 0h-75v503h75v-503z" />
    <glyph glyph-name="iacute" unicode="&#xed;" horiz-adv-x="171" 
d="M98 565h-62l71 128h87zM123 0h-75v503h75v-503z" />
    <glyph glyph-name="icircumflex" unicode="&#xee;" horiz-adv-x="171" 
d="M30 565h-62l78 128h79l77 -128h-61l-56 84zM123 0h-75v503h75v-503z" />
    <glyph glyph-name="idieresis" unicode="&#xef;" horiz-adv-x="171" 
d="M57 575h-70v108h70v-108zM183 575h-70v108h70v-108zM123 0h-75v503h75v-503z" />
    <glyph glyph-name="eth" unicode="&#xf0;" horiz-adv-x="374" 
d="M269 700h69l-81 -78q76 -100 76 -284v-185q0 -78 -38 -120.5t-110 -42.5t-110 42.5t-38 120.5v182q0 145 118 145q66 0 102 -57q-7 86 -50 151l-60 -58h-70l101 97q-50 53 -118 87h104q38 -20 61 -43zM258 146v155q0 53 -22 82.5t-59 29.5q-64 0 -64 -84v-183
q0 -89 72 -89q73 0 73 89z" />
    <glyph glyph-name="ntilde" unicode="&#xf1;" horiz-adv-x="385" 
d="M152 619q-23 0 -39 -40l-41 23q32 74 80 74q24 0 53 -21q21 -15 32 -15q23 0 39 40l41 -23q-32 -74 -80 -74q-26 0 -53 21q-21 15 -32 15zM225 513q116 0 116 -145v-368h-76v358q0 88 -63 88q-36 0 -57.5 -29.5t-21.5 -82.5v-334h-75v503h65l1 -66q31 76 111 76z" />
    <glyph glyph-name="ograve" unicode="&#xf2;" horiz-adv-x="371" 
d="M235 565h-61l-96 128h87zM186 -10q-72 0 -110 42.5t-38 120.5v198q0 78 38 120t110 42q71 0 109.5 -42t38.5 -120v-198q0 -78 -38.5 -120.5t-109.5 -42.5zM186 57q72 0 72 89v212q0 88 -72 88q-73 0 -73 -88v-212q0 -89 73 -89z" />
    <glyph glyph-name="oacute" unicode="&#xf3;" horiz-adv-x="371" 
d="M199 565h-62l71 128h87zM186 -10q-72 0 -110 42.5t-38 120.5v198q0 78 38 120t110 42q71 0 109.5 -42t38.5 -120v-198q0 -78 -38.5 -120.5t-109.5 -42.5zM186 57q72 0 72 89v212q0 88 -72 88q-73 0 -73 -88v-212q0 -89 73 -89z" />
    <glyph glyph-name="ocircumflex" unicode="&#xf4;" horiz-adv-x="371" 
d="M131 565h-62l78 128h79l77 -128h-61l-56 84zM186 -10q-72 0 -110 42.5t-38 120.5v198q0 78 38 120t110 42q71 0 109.5 -42t38.5 -120v-198q0 -78 -38.5 -120.5t-109.5 -42.5zM186 57q72 0 72 89v212q0 88 -72 88q-73 0 -73 -88v-212q0 -89 73 -89z" />
    <glyph glyph-name="otilde" unicode="&#xf5;" horiz-adv-x="371" 
d="M106 579l-41 23q32 74 80 74q24 0 53 -21q21 -15 32 -15q23 0 39 40l41 -23q-32 -74 -80 -74q-26 0 -53 21q-21 15 -32 15q-23 0 -39 -40zM186 -10q-72 0 -110 42.5t-38 120.5v198q0 78 38 120t110 42q71 0 109.5 -42t38.5 -120v-198q0 -78 -38.5 -120.5t-109.5 -42.5z
M186 57q72 0 72 89v212q0 88 -72 88q-73 0 -73 -88v-212q0 -89 73 -89z" />
    <glyph glyph-name="odieresis" unicode="&#xf6;" horiz-adv-x="371" 
d="M158 575h-70v108h70v-108zM284 575h-70v108h70v-108zM186 -10q-72 0 -110 42.5t-38 120.5v198q0 78 38 120t110 42q71 0 109.5 -42t38.5 -120v-198q0 -78 -38.5 -120.5t-109.5 -42.5zM186 57q72 0 72 89v212q0 88 -72 88q-73 0 -73 -88v-212q0 -89 73 -89z" />
    <glyph glyph-name="divide" unicode="&#xf7;" 
d="M239 396h-80v98h80v-98zM369 270h-340v60h340v-60zM239 106h-80v99h80v-99z" />
    <glyph glyph-name="oslash" unicode="&#xf8;" horiz-adv-x="371" 
d="M332 513l-26 -55q28 -41 28 -107v-198q0 -78 -38.5 -120.5t-109.5 -42.5q-54 0 -88 24l-20 -42l-38 19l26 55q-28 40 -28 107v198q0 78 38 120t110 42q53 0 88 -23l20 42zM113 358v-212l129 275q-16 25 -56 25q-73 0 -73 -88zM186 57q72 0 72 89v209l-129 -273
q19 -25 57 -25z" />
    <glyph glyph-name="ugrave" unicode="&#xf9;" horiz-adv-x="385" 
d="M170 693l70 -128h-61l-96 128h87zM262 169v334h75v-503h-65l-1 67q-32 -77 -111 -77q-116 0 -116 146v367h76v-358q0 -88 63 -88q36 0 57.5 29.5t21.5 82.5z" />
    <glyph glyph-name="uacute" unicode="&#xfa;" horiz-adv-x="385" 
d="M213 693h87l-96 -128h-62zM262 169v334h75v-503h-65l-1 67q-32 -77 -111 -77q-116 0 -116 146v367h76v-358q0 -88 63 -88q36 0 57.5 29.5t21.5 82.5z" />
    <glyph glyph-name="ucircumflex" unicode="&#xfb;" horiz-adv-x="385" 
d="M247 565l-56 84l-55 -84h-62l78 128h79l77 -128h-61zM262 169v334h75v-503h-65l-1 67q-32 -77 -111 -77q-116 0 -116 146v367h76v-358q0 -88 63 -88q36 0 57.5 29.5t21.5 82.5z" />
    <glyph glyph-name="udieresis" unicode="&#xfc;" horiz-adv-x="385" 
d="M93 683h70v-108h-70v108zM219 683h70v-108h-70v108zM262 169v334h75v-503h-65l-1 67q-32 -77 -111 -77q-116 0 -116 146v367h76v-358q0 -88 63 -88q36 0 57.5 29.5t21.5 82.5z" />
    <glyph glyph-name="yacute" unicode="&#xfd;" horiz-adv-x="355" 
d="M200 693h87l-96 -128h-62zM267 503h70l-106 -468l-21 -92q-13 -58 -41 -83t-80 -25q-34 0 -51 10v65q18 -8 40 -8q27 0 39 11t19 41l9 40l-128 509h77l91 -383z" />
    <glyph glyph-name="thorn" unicode="&#xfe;" horiz-adv-x="384" 
d="M226 513q118 0 118 -145v-232q0 -146 -118 -146q-68 0 -103 60v-205h-75v855h75v-247q35 60 103 60zM268 142v220q0 84 -64 84q-37 0 -59 -29.5t-22 -82.5v-165q0 -53 22 -82.5t59 -29.5q64 0 64 85z" />
    <glyph glyph-name="ydieresis" unicode="&#xff;" horiz-adv-x="355" 
d="M80 683h70v-108h-70v108zM206 683h70v-108h-70v108zM267 503h70l-106 -468l-21 -92q-13 -58 -41 -83t-80 -25q-34 0 -51 10v65q18 -8 40 -8q27 0 39 11t19 41l9 40l-128 509h77l91 -383z" />
    <glyph glyph-name="Amacron" unicode="&#x100;" 
d="M94 846h212v-59h-212v59zM383 0h-79l-26 149h-162l-26 -149h-73l130 700h105zM196 611l-68 -394h138z" />
    <glyph glyph-name="amacron" unicode="&#x101;" horiz-adv-x="367" 
d="M73 659h212v-59h-212v59zM332 0h-69q-5 19 -8 68q-31 -78 -117 -78q-52 0 -82 33.5t-30 90.5q0 58 28.5 95.5t96.5 69.5q62 28 79 42q16 13 16 40v12q0 75 -65 75q-33 0 -51.5 -20t-18.5 -57v-15h-71v11q0 70 37 108t105 38q139 0 139 -152v-224q0 -88 11 -137zM164 56
q38 0 60 30t22 84v101q-11 -15 -73 -47q-71 -36 -71 -99q0 -69 62 -69z" />
    <glyph glyph-name="Abreve" unicode="&#x102;" 
d="M95 869h49q6 -53 56 -53q52 0 58 53h48q-2 -50 -29.5 -78t-76.5 -28t-76 27.5t-29 78.5zM383 0h-79l-26 149h-162l-26 -149h-73l130 700h105zM196 611l-68 -394h138z" />
    <glyph glyph-name="abreve" unicode="&#x103;" horiz-adv-x="367" 
d="M74 682h49q6 -53 56 -53q52 0 58 53h48q-2 -50 -29.5 -78t-76.5 -28t-76 27.5t-29 78.5zM332 0h-69q-5 19 -8 68q-31 -78 -117 -78q-52 0 -82 33.5t-30 90.5q0 58 28.5 95.5t96.5 69.5q62 28 79 42q16 13 16 40v12q0 75 -65 75q-33 0 -51.5 -20t-18.5 -57v-15h-71v11
q0 70 37 108t105 38q139 0 139 -152v-224q0 -88 11 -137zM164 56q38 0 60 30t22 84v101q-11 -15 -73 -47q-71 -36 -71 -99q0 -69 62 -69z" />
    <glyph glyph-name="Aogonek" unicode="&#x104;" 
d="M352 -108q16 0 38 9l-1 -45q-28 -11 -57 -11q-84 0 -84 65q0 56 63 90h-7l-26 149h-162l-26 -149h-73l130 700h105l131 -700h-30q-44 -30 -44 -70q0 -38 43 -38zM196 611l-68 -394h138z" />
    <glyph glyph-name="aogonek" unicode="&#x105;" horiz-adv-x="367" 
d="M301 -108q15 0 38 9l-1 -45q-28 -11 -57 -11q-84 0 -84 65q0 54 66 91q-7 20 -8 67q-31 -78 -117 -78q-52 0 -82 33.5t-30 90.5q0 58 28.5 95.5t96.5 69.5q62 28 79 42q16 13 16 40v12q0 75 -65 75q-33 0 -51.5 -20t-18.5 -57v-15h-71v11q0 70 37 108t105 38
q139 0 139 -152v-224q0 -88 11 -137h-30q-44 -35 -44 -70q0 -38 43 -38zM164 56q38 0 60 30t22 84v101q-11 -15 -73 -47q-71 -36 -71 -99q0 -69 62 -69z" />
    <glyph glyph-name="Cacute" unicode="&#x106;" horiz-adv-x="382" 
d="M208 752h-62l71 128h87zM196 -10q-74 0 -115 44t-41 123v386q0 79 40.5 123t115.5 44t115.5 -44t40.5 -123v-72h-74v77q0 44 -21.5 67.5t-58.5 23.5t-58.5 -23.5t-21.5 -67.5v-396q0 -44 21.5 -67.5t58.5 -23.5t58.5 23.5t21.5 67.5v98h74v-93q0 -79 -40.5 -123
t-115.5 -44z" />
    <glyph glyph-name="cacute" unicode="&#x107;" horiz-adv-x="359" 
d="M196 565h-62l71 128h87zM185 -10q-72 0 -109.5 41.5t-37.5 119.5v202q0 78 37.5 119t109.5 41q71 0 107.5 -41.5t36.5 -118.5v-22h-73v29q0 86 -71 86t-71 -86v-216q0 -87 71 -87t71 87v39h73v-32q0 -78 -36.5 -119.5t-107.5 -41.5z" />
    <glyph glyph-name="Ccircumflex" unicode="&#x108;" horiz-adv-x="382" 
d="M140 752h-62l78 128h79l77 -128h-61l-56 84zM196 -10q-74 0 -115 44t-41 123v386q0 79 40.5 123t115.5 44t115.5 -44t40.5 -123v-72h-74v77q0 44 -21.5 67.5t-58.5 23.5t-58.5 -23.5t-21.5 -67.5v-396q0 -44 21.5 -67.5t58.5 -23.5t58.5 23.5t21.5 67.5v98h74v-93
q0 -79 -40.5 -123t-115.5 -44z" />
    <glyph glyph-name="ccircumflex" unicode="&#x109;" horiz-adv-x="359" 
d="M128 565h-62l78 128h79l77 -128h-61l-56 84zM185 -10q-72 0 -109.5 41.5t-37.5 119.5v202q0 78 37.5 119t109.5 41q71 0 107.5 -41.5t36.5 -118.5v-22h-73v29q0 86 -71 86t-71 -86v-216q0 -87 71 -87t71 87v39h73v-32q0 -78 -36.5 -119.5t-107.5 -41.5z" />
    <glyph glyph-name="Cdotaccent" unicode="&#x10a;" horiz-adv-x="382" 
d="M233 762h-75v108h75v-108zM196 -10q-74 0 -115 44t-41 123v386q0 79 40.5 123t115.5 44t115.5 -44t40.5 -123v-72h-74v77q0 44 -21.5 67.5t-58.5 23.5t-58.5 -23.5t-21.5 -67.5v-396q0 -44 21.5 -67.5t58.5 -23.5t58.5 23.5t21.5 67.5v98h74v-93q0 -79 -40.5 -123
t-115.5 -44z" />
    <glyph glyph-name="cdotaccent" unicode="&#x10b;" horiz-adv-x="359" 
d="M221 575h-75v108h75v-108zM185 -10q-72 0 -109.5 41.5t-37.5 119.5v202q0 78 37.5 119t109.5 41q71 0 107.5 -41.5t36.5 -118.5v-22h-73v29q0 86 -71 86t-71 -86v-216q0 -87 71 -87t71 87v39h73v-32q0 -78 -36.5 -119.5t-107.5 -41.5z" />
    <glyph glyph-name="Ccaron" unicode="&#x10c;" horiz-adv-x="382" 
d="M235 752h-79l-78 128h62l55 -84l56 84h61zM196 -10q-74 0 -115 44t-41 123v386q0 79 40.5 123t115.5 44t115.5 -44t40.5 -123v-72h-74v77q0 44 -21.5 67.5t-58.5 23.5t-58.5 -23.5t-21.5 -67.5v-396q0 -44 21.5 -67.5t58.5 -23.5t58.5 23.5t21.5 67.5v98h74v-93
q0 -79 -40.5 -123t-115.5 -44z" />
    <glyph glyph-name="ccaron" unicode="&#x10d;" horiz-adv-x="359" 
d="M223 565h-79l-78 128h62l55 -84l56 84h61zM185 -10q-72 0 -109.5 41.5t-37.5 119.5v202q0 78 37.5 119t109.5 41q71 0 107.5 -41.5t36.5 -118.5v-22h-73v29q0 86 -71 86t-71 -86v-216q0 -87 71 -87t71 87v39h73v-32q0 -78 -36.5 -119.5t-107.5 -41.5z" />
    <glyph glyph-name="Dcaron" unicode="&#x10e;" horiz-adv-x="406" 
d="M234 752h-79l-78 128h62l55 -84l56 84h61zM208 0h-160v700h160q158 0 158 -170v-360q0 -170 -158 -170zM126 629v-558h80q42 0 62 22.5t20 73.5v367q0 50 -19.5 72.5t-62.5 22.5h-80z" />
    <glyph glyph-name="dcaron" unicode="&#x10f;" horiz-adv-x="440" 
d="M261 700h75v-563q0 -88 11 -137h-69q-7 20 -8 68q-33 -78 -113 -78q-117 0 -117 146v232q0 145 117 145q69 0 104 -60v247zM374 606v94h73v-87l-37 -101h-32l24 94h-28zM180 57q37 0 59 29.5t22 82.5v165q0 53 -22 82.5t-59 29.5q-64 0 -64 -84v-220q0 -85 64 -85z" />
    <glyph glyph-name="Dcroat" unicode="&#x110;" horiz-adv-x="421" 
d="M62 700h160q159 0 159 -170v-360q0 -170 -159 -170h-160v331h-45v68h45v301zM303 167v367q0 50 -19.5 72.5t-62.5 22.5h-81v-230h78v-68h-78v-260h81q42 0 62 22.5t20 73.5z" />
    <glyph glyph-name="dslash" unicode="&#x111;" horiz-adv-x="384" 
d="M384 628v-58h-48v-433q0 -88 11 -137h-69q-7 20 -8 68q-33 -78 -113 -78q-117 0 -117 146v232q0 145 117 145q69 0 104 -60v117h-79v58h79v72h75v-72h48zM180 57q37 0 59 29.5t22 82.5v165q0 53 -22 82.5t-59 29.5q-64 0 -64 -84v-220q0 -85 64 -85z" />
    <glyph glyph-name="Emacron" unicode="&#x112;" horiz-adv-x="356" 
d="M297 787h-212v59h212v-59zM335 0h-287v700h287v-71h-209v-228h170v-71h-170v-259h209v-71z" />
    <glyph glyph-name="emacron" unicode="&#x113;" horiz-adv-x="370" 
d="M80 659h212v-59h-212v59zM187 513q72 0 110.5 -42t38.5 -120v-111h-222v-94q0 -89 74 -89q75 0 75 89v15h73v-8q0 -78 -38.5 -120.5t-110.5 -42.5t-110.5 42.5t-38.5 120.5v198q0 78 38 120t111 42zM114 358v-56h148v56q0 88 -75 88q-73 0 -73 -88z" />
    <glyph glyph-name="Ebreve" unicode="&#x114;" horiz-adv-x="356" 
d="M86 869h49q6 -53 56 -53q52 0 58 53h48q-2 -50 -29.5 -78t-76.5 -28t-76 27.5t-29 78.5zM335 0h-287v700h287v-71h-209v-228h170v-71h-170v-259h209v-71z" />
    <glyph glyph-name="ebreve" unicode="&#x115;" horiz-adv-x="370" 
d="M81 682h49q6 -53 56 -53q52 0 58 53h48q-2 -50 -29.5 -78t-76.5 -28t-76 27.5t-29 78.5zM187 513q72 0 110.5 -42t38.5 -120v-111h-222v-94q0 -89 74 -89q75 0 75 89v15h73v-8q0 -78 -38.5 -120.5t-110.5 -42.5t-110.5 42.5t-38.5 120.5v198q0 78 38 120t111 42zM114 358
v-56h148v56q0 88 -75 88q-73 0 -73 -88z" />
    <glyph glyph-name="Edotaccent" unicode="&#x116;" horiz-adv-x="356" 
d="M229 762h-75v108h75v-108zM335 0h-287v700h287v-71h-209v-228h170v-71h-170v-259h209v-71z" />
    <glyph glyph-name="edotaccent" unicode="&#x117;" horiz-adv-x="370" 
d="M149 683h75v-108h-75v108zM187 513q72 0 110.5 -42t38.5 -120v-111h-222v-94q0 -89 74 -89q75 0 75 89v15h73v-8q0 -78 -38.5 -120.5t-110.5 -42.5t-110.5 42.5t-38.5 120.5v198q0 78 38 120t111 42zM114 358v-56h148v56q0 88 -75 88q-73 0 -73 -88z" />
    <glyph glyph-name="Eogonek" unicode="&#x118;" horiz-adv-x="356" 
d="M335 700v-71h-209v-228h170v-71h-170v-259h209v-71h-41q-40 -30 -40 -70q0 -38 43 -38q15 0 38 9l-1 -45q-28 -11 -57 -11q-84 0 -84 64q0 54 61 91h-206v700h287z" />
    <glyph glyph-name="eogonek" unicode="&#x119;" horiz-adv-x="370" 
d="M187 513q72 0 110.5 -42t38.5 -120v-111h-222v-94q0 -89 74 -89q75 0 75 89v15h73v-8q0 -91 -51 -132q-45 -44 -45 -91q0 -38 43 -38q16 0 38 9l-1 -45q-30 -11 -57 -11q-84 0 -84 65q0 48 48 84q-15 -4 -40 -4q-72 0 -110.5 42.5t-38.5 120.5v198q0 78 38 120t111 42z
M114 358v-56h148v56q0 88 -75 88q-73 0 -73 -88z" />
    <glyph glyph-name="Ecaron" unicode="&#x11a;" horiz-adv-x="356" 
d="M231 752h-79l-78 128h62l55 -84l56 84h61zM335 0h-287v700h287v-71h-209v-228h170v-71h-170v-259h209v-71z" />
    <glyph glyph-name="ecaron" unicode="&#x11b;" horiz-adv-x="370" 
d="M303 693l-77 -128h-79l-78 128h62l55 -84l56 84h61zM187 513q72 0 110.5 -42t38.5 -120v-111h-222v-94q0 -89 74 -89q75 0 75 89v15h73v-8q0 -78 -38.5 -120.5t-110.5 -42.5t-110.5 42.5t-38.5 120.5v198q0 78 38 120t111 42zM114 358v-56h148v56q0 88 -75 88
q-73 0 -73 -88z" />
    <glyph glyph-name="Gcircumflex" unicode="&#x11c;" horiz-adv-x="393" 
d="M142 752h-62l78 128h79l77 -128h-61l-56 84zM198 -10q-77 0 -117.5 44.5t-40.5 128.5v375q0 83 40.5 127.5t117.5 44.5q78 0 118.5 -44t40.5 -128v-57h-74v62q0 96 -83 96q-82 0 -82 -96v-386q0 -96 82 -96q83 0 83 96v157h-77v71h151v-222q0 -84 -40.5 -128.5
t-118.5 -44.5z" />
    <glyph glyph-name="gcircumflex" unicode="&#x11d;" horiz-adv-x="382" 
d="M237 565l-56 84l-55 -84h-62l78 128h79l77 -128h-61zM268 436l1 67h65v-518q0 -76 -35 -113t-112 -37q-144 0 -144 129v4h72v-7q0 -63 71 -63q73 0 73 82v92q-35 -60 -103 -60q-117 0 -117 146v210q0 145 117 145q80 0 112 -77zM179 79q36 0 58 29.5t22 82.5v143
q0 53 -22 82.5t-58 29.5q-65 0 -65 -84v-198q0 -85 65 -85z" />
    <glyph glyph-name="Gbreve" unicode="&#x11e;" horiz-adv-x="393" 
d="M92 869h49q6 -53 56 -53q52 0 58 53h48q-2 -50 -29.5 -78t-76.5 -28t-76 27.5t-29 78.5zM198 -10q-77 0 -117.5 44.5t-40.5 128.5v375q0 83 40.5 127.5t117.5 44.5q78 0 118.5 -44t40.5 -128v-57h-74v62q0 96 -83 96q-82 0 -82 -96v-386q0 -96 82 -96q83 0 83 96v157h-77
v71h151v-222q0 -84 -40.5 -128.5t-118.5 -44.5z" />
    <glyph glyph-name="gbreve" unicode="&#x11f;" horiz-adv-x="382" 
d="M76 682h49q6 -53 56 -53q52 0 58 53h48q-2 -50 -29.5 -78t-76.5 -28t-76 27.5t-29 78.5zM268 436l1 67h65v-518q0 -76 -35 -113t-112 -37q-144 0 -144 129v4h72v-7q0 -63 71 -63q73 0 73 82v92q-35 -60 -103 -60q-117 0 -117 146v210q0 145 117 145q80 0 112 -77zM179 79
q36 0 58 29.5t22 82.5v143q0 53 -22 82.5t-58 29.5q-65 0 -65 -84v-198q0 -85 65 -85z" />
    <glyph glyph-name="Gdotaccent" unicode="&#x120;" horiz-adv-x="393" 
d="M235 762h-75v108h75v-108zM198 -10q-77 0 -117.5 44.5t-40.5 128.5v375q0 83 40.5 127.5t117.5 44.5q78 0 118.5 -44t40.5 -128v-57h-74v62q0 96 -83 96q-82 0 -82 -96v-386q0 -96 82 -96q83 0 83 96v157h-77v71h151v-222q0 -84 -40.5 -128.5t-118.5 -44.5z" />
    <glyph glyph-name="gdotaccent" unicode="&#x121;" horiz-adv-x="382" 
d="M144 683h75v-108h-75v108zM268 436l1 67h65v-518q0 -76 -35 -113t-112 -37q-144 0 -144 129v4h72v-7q0 -63 71 -63q73 0 73 82v92q-35 -60 -103 -60q-117 0 -117 146v210q0 145 117 145q80 0 112 -77zM179 79q36 0 58 29.5t22 82.5v143q0 53 -22 82.5t-58 29.5
q-65 0 -65 -84v-198q0 -85 65 -85z" />
    <glyph glyph-name="uni0122" unicode="&#x122;" horiz-adv-x="393" 
d="M198 -10q-77 0 -117.5 44.5t-40.5 128.5v375q0 83 40.5 127.5t117.5 44.5q78 0 118.5 -44t40.5 -128v-57h-74v62q0 96 -83 96q-82 0 -82 -96v-386q0 -96 82 -96q83 0 83 96v157h-77v71h151v-222q0 -84 -40.5 -128.5t-118.5 -44.5zM192 -184h-29l32 53h-34v84h75v-77z" />
    <glyph glyph-name="uni0123" unicode="&#x123;" horiz-adv-x="382" 
d="M184 660h35v-85h-76v78l41 60h29zM268 436l1 67h65v-518q0 -76 -35 -113t-112 -37q-144 0 -144 129v4h72v-7q0 -63 71 -63q73 0 73 82v92q-35 -60 -103 -60q-117 0 -117 146v210q0 145 117 145q80 0 112 -77zM179 79q36 0 58 29.5t22 82.5v143q0 53 -22 82.5t-58 29.5
q-65 0 -65 -84v-198q0 -85 65 -85z" />
    <glyph glyph-name="Hcircumflex" unicode="&#x124;" horiz-adv-x="418" 
d="M154 752h-62l78 128h79l77 -128h-61l-56 84zM126 0h-78v700h78v-299h166v299h78v-700h-78v330h-166v-330z" />
    <glyph glyph-name="hcircumflex" unicode="&#x125;" horiz-adv-x="385" 
d="M202 752h-61l-56 84l-55 -84h-62l78 128h79zM225 513q116 0 116 -145v-368h-76v358q0 88 -63 88q-36 0 -57.5 -29.5t-21.5 -82.5v-334h-75v700h75v-245q34 58 102 58z" />
    <glyph glyph-name="Hbar" unicode="&#x126;" horiz-adv-x="438" 
d="M381 583h41v-65h-41v-518h-78v330h-167v-330h-78v518h-42v65h42v117h78v-117h167v117h78v-117zM136 401h167v117h-167v-117z" />
    <glyph glyph-name="hbar" unicode="&#x127;" horiz-adv-x="385" 
d="M225 513q116 0 116 -145v-368h-76v358q0 88 -63 88q-36 0 -57.5 -29.5t-21.5 -82.5v-334h-75v570h-48v58h48v72h75v-72h79v-58h-79v-115q34 58 102 58z" />
    <glyph glyph-name="Itilde" unicode="&#x128;" horiz-adv-x="173" 
d="M7 766l-42 23q33 74 81 74q24 0 53 -21q21 -15 32 -15q23 0 39 40l41 -23q-32 -74 -80 -74q-26 0 -53 21q-21 15 -32 15q-23 0 -39 -40zM126 0h-78v700h78v-700z" />
    <glyph glyph-name="itilde" unicode="&#x129;" horiz-adv-x="171" 
d="M5 579l-42 23q33 74 81 74q24 0 53 -21q21 -15 32 -15q23 0 39 40l41 -23q-32 -74 -80 -74q-26 0 -53 21q-21 15 -32 15q-23 0 -39 -40zM123 0h-75v503h75v-503z" />
    <glyph glyph-name="Imacron" unicode="&#x12a;" horiz-adv-x="173" 
d="M193 787h-212v59h212v-59zM126 0h-78v700h78v-700z" />
    <glyph glyph-name="imacron" unicode="&#x12b;" horiz-adv-x="171" 
d="M191 600h-212v59h212v-59zM123 0h-75v503h75v-503z" />
    <glyph glyph-name="Ibreve" unicode="&#x12c;" horiz-adv-x="173" 
d="M-18 869h49q6 -53 56 -53q52 0 58 53h48q-2 -50 -29.5 -78t-76.5 -28t-76 27.5t-29 78.5zM126 0h-78v700h78v-700z" />
    <glyph glyph-name="ibreve" unicode="&#x12d;" horiz-adv-x="171" 
d="M-20 682h49q6 -53 56 -53q52 0 58 53h48q-2 -50 -29.5 -78t-76.5 -28t-76 27.5t-29 78.5zM123 0h-75v503h75v-503z" />
    <glyph glyph-name="Iogonek" unicode="&#x12e;" horiz-adv-x="173" 
d="M117 -108q15 0 38 9l-1 -45q-30 -11 -57 -11q-84 0 -84 65q0 53 55 90h-20v700h78v-700h-19q-33 -28 -33 -70q0 -38 43 -38z" />
    <glyph glyph-name="iogonek" unicode="&#x12f;" horiz-adv-x="171" 
d="M48 683h75v-108h-75v108zM116 -108q16 0 38 9l-1 -45q-30 -11 -57 -11q-84 0 -84 65q0 53 55 90h-19v503h75v-503h-17q-33 -28 -33 -70q0 -38 43 -38z" />
    <glyph glyph-name="Idot" unicode="&#x130;" horiz-adv-x="173" 
d="M125 762h-75v108h75v-108zM126 0h-78v700h78v-700z" />
    <glyph glyph-name="dotlessi" unicode="&#x131;" horiz-adv-x="171" 
d="M123 0h-75v503h75v-503z" />
    <glyph glyph-name="IJ" unicode="&#x132;" horiz-adv-x="432" 
d="M126 0h-78v700h78v-700zM241 -4q-33 0 -51 6v71q20 -6 41 -6q41 0 60 21t19 67v545h78v-543q0 -82 -36 -121.5t-111 -39.5z" />
    <glyph glyph-name="ij" unicode="&#x133;" horiz-adv-x="342" 
d="M123 575h-75v108h75v-108zM294 575h-75v108h75v-108zM123 0h-75v503h75v-503zM201 -165q-28 0 -47 10v64q15 -7 33 -7q17 0 24.5 8.5t7.5 29.5v563h75v-569q0 -99 -93 -99z" />
    <glyph glyph-name="Jcircumflex" unicode="&#x134;" horiz-adv-x="259" 
d="M113 752h-62l78 128h79l77 -128h-61l-56 84zM68 -4q-33 0 -51 6v71q19 -6 41 -6q41 0 60 21t19 67v545h78v-543q0 -82 -36 -121.5t-111 -39.5z" />
    <glyph glyph-name="jcircumflex" unicode="&#x135;" horiz-adv-x="171" 
d="M30 565h-62l78 128h79l77 -128h-61l-56 84zM30 -165q-29 0 -48 10v64q18 -7 34 -7q17 0 24.5 8.5t7.5 29.5v563h75v-569q0 -99 -93 -99z" />
    <glyph glyph-name="uni0136" unicode="&#x136;" horiz-adv-x="408" 
d="M390 700l-145 -262l147 -438h-82l-117 346l-67 -121v-225h-78v700h78v-345l183 345h81zM213 -131h-34v84h75v-77l-44 -60h-29z" />
    <glyph glyph-name="uni0137" unicode="&#x137;" horiz-adv-x="383" 
d="M361 503l-127 -188l133 -315h-82l-101 240l-61 -91v-149h-75v700h75v-442l157 245h81zM201 -131h-34v84h75v-77l-44 -60h-29z" />
    <glyph glyph-name="kgreenlandic" unicode="&#x138;" horiz-adv-x="382" 
d="M366 0h-81l-102 239l-61 -91v-148h-75v503h76v-246l156 246h82l-127 -188z" />
    <glyph glyph-name="Lacute" unicode="&#x139;" horiz-adv-x="342" 
d="M110 752h-62l71 128h87zM326 0h-278v700h78v-629h200v-71z" />
    <glyph glyph-name="lacute" unicode="&#x13a;" horiz-adv-x="171" 
d="M98 752h-62l71 128h87zM123 0h-75v700h75v-700z" />
    <glyph glyph-name="uni013B" unicode="&#x13b;" horiz-adv-x="342" 
d="M326 0h-278v700h78v-629h200v-71zM182 -184h-29l32 53h-34v84h75v-77z" />
    <glyph glyph-name="uni013C" unicode="&#x13c;" horiz-adv-x="171" 
d="M123 0h-75v700h75v-700zM79 -184h-29l32 53h-34v84h75v-77z" />
    <glyph glyph-name="Lcaron" unicode="&#x13d;" horiz-adv-x="342" 
d="M326 0h-278v700h78v-629h200v-71zM249 512h-33l25 94h-28v94h72v-87z" />
    <glyph glyph-name="lcaron" unicode="&#x13e;" horiz-adv-x="227" 
d="M123 0h-75v700h75v-700zM197 512h-33l25 94h-28v94h72v-87z" />
    <glyph glyph-name="Ldot" unicode="&#x13f;" horiz-adv-x="341" 
d="M326 0h-278v700h78v-629h200v-71zM294 330h-76v97h76v-97z" />
    <glyph glyph-name="ldot" unicode="&#x140;" horiz-adv-x="252" 
d="M123 0h-75v700h75v-700zM251 300h-79v100h79v-100z" />
    <glyph glyph-name="Lslash" unicode="&#x141;" horiz-adv-x="368" 
d="M151 274v-203h200v-71h-278v191l-55 -59v86l55 59v423h78v-340l136 146v-86z" />
    <glyph glyph-name="lslash" unicode="&#x142;" horiz-adv-x="217" 
d="M143 455l56 59v-79l-56 -59v-376h-75v297l-48 -50v79l48 50v324h75v-245z" />
    <glyph glyph-name="Nacute" unicode="&#x143;" horiz-adv-x="425" 
d="M226 752h-62l71 128h87zM119 0h-71v700h100l158 -500v500h71v-700h-81l-177 569v-569z" />
    <glyph glyph-name="nacute" unicode="&#x144;" horiz-adv-x="385" 
d="M215 693h87l-96 -128h-62zM225 513q116 0 116 -145v-368h-76v358q0 88 -63 88q-36 0 -57.5 -29.5t-21.5 -82.5v-334h-75v503h65l1 -66q31 76 111 76z" />
    <glyph glyph-name="uni0145" unicode="&#x145;" horiz-adv-x="425" 
d="M119 0h-71v700h100l158 -500v500h71v-700h-81l-177 569v-569zM207 -184h-29l32 53h-34v84h75v-77z" />
    <glyph glyph-name="uni0146" unicode="&#x146;" horiz-adv-x="385" 
d="M225 513q116 0 116 -145v-368h-76v358q0 88 -63 88q-36 0 -57.5 -29.5t-21.5 -82.5v-334h-75v503h65l1 -66q31 76 111 76zM190 -131h-34v84h75v-77l-44 -60h-29z" />
    <glyph glyph-name="Ncaron" unicode="&#x147;" horiz-adv-x="425" 
d="M253 752h-79l-78 128h62l55 -84l56 84h61zM119 0h-71v700h100l158 -500v500h71v-700h-81l-177 569v-569z" />
    <glyph glyph-name="ncaron" unicode="&#x148;" horiz-adv-x="385" 
d="M310 693l-77 -128h-79l-78 128h62l55 -84l56 84h61zM225 513q116 0 116 -145v-368h-76v358q0 88 -63 88q-36 0 -57.5 -29.5t-21.5 -82.5v-334h-75v503h65l1 -66q31 76 111 76z" />
    <glyph glyph-name="napostrophe" unicode="&#x149;" horiz-adv-x="385" 
d="M1 603h-29v97h75v-89l-39 -99h-32zM225 513q116 0 116 -145v-368h-76v358q0 88 -63 88q-36 0 -57.5 -29.5t-21.5 -82.5v-334h-75v503h65l1 -66q31 76 111 76z" />
    <glyph glyph-name="Eng" unicode="&#x14a;" horiz-adv-x="425" 
d="M230 -165q-29 0 -51 5v65q21 -6 41 -6q41 0 60 21t19 67q0 29 -7 53l-173 535v-575h-71v700h100l158 -485v485h71v-704q0 -82 -36 -121.5t-111 -39.5z" />
    <glyph glyph-name="eng" unicode="&#x14b;" horiz-adv-x="386" 
d="M226 513q116 0 116 -145v-419q0 -114 -111 -114q-32 0 -55 10v65q21 -8 41 -8q27 0 38 12.5t11 43.5v404q0 84 -63 84q-37 0 -58.5 -29.5t-21.5 -82.5v-334h-75v503h65l1 -66q31 76 112 76z" />
    <glyph glyph-name="Omacron" unicode="&#x14c;" 
d="M306 787h-212v59h212v-59zM200 -10q-77 0 -118.5 45t-41.5 128v375q0 83 41.5 127.5t118.5 44.5q78 0 119.5 -44.5t41.5 -127.5v-375q0 -83 -41.5 -128t-119.5 -45zM200 61q83 0 83 97v385q0 96 -83 96q-82 0 -82 -96v-385q0 -97 82 -97z" />
    <glyph glyph-name="omacron" unicode="&#x14d;" horiz-adv-x="371" 
d="M292 600h-212v59h212v-59zM186 -10q-72 0 -110 42.5t-38 120.5v198q0 78 38 120t110 42q71 0 109.5 -42t38.5 -120v-198q0 -78 -38.5 -120.5t-109.5 -42.5zM186 57q72 0 72 89v212q0 88 -72 88q-73 0 -73 -88v-212q0 -89 73 -89z" />
    <glyph glyph-name="Obreve" unicode="&#x14e;" 
d="M95 869h49q6 -53 56 -53q52 0 58 53h48q-2 -50 -29.5 -78t-76.5 -28t-76 27.5t-29 78.5zM200 -10q-77 0 -118.5 45t-41.5 128v375q0 83 41.5 127.5t118.5 44.5q78 0 119.5 -44.5t41.5 -127.5v-375q0 -83 -41.5 -128t-119.5 -45zM200 61q83 0 83 97v385q0 96 -83 96
q-82 0 -82 -96v-385q0 -97 82 -97z" />
    <glyph glyph-name="obreve" unicode="&#x14f;" horiz-adv-x="371" 
d="M81 682h49q6 -53 56 -53q52 0 58 53h48q-2 -50 -29.5 -78t-76.5 -28t-76 27.5t-29 78.5zM186 -10q-72 0 -110 42.5t-38 120.5v198q0 78 38 120t110 42q71 0 109.5 -42t38.5 -120v-198q0 -78 -38.5 -120.5t-109.5 -42.5zM186 57q72 0 72 89v212q0 88 -72 88q-73 0 -73 -88
v-212q0 -89 73 -89z" />
    <glyph glyph-name="Ohungarumlaut" unicode="&#x150;" 
d="M145 752h-57l71 128h82zM277 752h-57l70 128h83zM200 -10q-77 0 -118.5 45t-41.5 128v375q0 83 41.5 127.5t118.5 44.5q78 0 119.5 -44.5t41.5 -127.5v-375q0 -83 -41.5 -128t-119.5 -45zM200 61q83 0 83 97v385q0 96 -83 96q-82 0 -82 -96v-385q0 -97 82 -97z" />
    <glyph glyph-name="ohungarumlaut" unicode="&#x151;" horiz-adv-x="371" 
d="M131 565h-57l71 128h82zM263 565h-57l70 128h83zM186 -10q-72 0 -110 42.5t-38 120.5v198q0 78 38 120t110 42q71 0 109.5 -42t38.5 -120v-198q0 -78 -38.5 -120.5t-109.5 -42.5zM186 57q72 0 72 89v212q0 88 -72 88q-73 0 -73 -88v-212q0 -89 73 -89z" />
    <glyph glyph-name="OE" unicode="&#x152;" horiz-adv-x="588" 
d="M567 0h-369q-158 0 -158 170v360q0 170 158 170h369v-71h-209v-228h170v-71h-170v-259h209v-71zM200 71h80v558h-80q-43 0 -62.5 -22t-19.5 -73v-367q0 -51 19.5 -73.5t62.5 -22.5z" />
    <glyph glyph-name="oe" unicode="&#x153;" horiz-adv-x="592" 
d="M415 513q68 0 105 -42t37 -120v-111h-222v-94q0 -89 74 -89q76 0 76 89v15h72v-8q0 -78 -37 -120.5t-105 -42.5q-86 0 -118 68q-32 -68 -117 -68q-68 0 -105 42.5t-37 120.5v198q0 78 37 120t105 42q87 0 117 -67q30 67 118 67zM260 146v212q0 88 -73 88t-73 -88v-212
q0 -89 73 -89t73 89zM335 358v-56h148v56q0 88 -74 88t-74 -88z" />
    <glyph glyph-name="Racute" unicode="&#x154;" horiz-adv-x="401" 
d="M204 752h-62l71 128h87zM126 0h-78v700h153q83 0 120.5 -38.5t37.5 -120.5v-43q0 -116 -81 -141v-1q82 -21 82 -146v-125q0 -58 10 -85h-79q-9 30 -9 85v129q0 56 -21 79t-72 23h-63v-316zM126 629v-242h63q48 0 70 22.5t22 73.5v50q0 51 -19 73.5t-63 22.5h-73z" />
    <glyph glyph-name="racute" unicode="&#x155;" horiz-adv-x="264" 
d="M164 693h87l-96 -128h-62zM219 513q21 0 33 -6v-74q-15 5 -31 5q-98 0 -98 -145v-293h-75v503h65l1 -83q26 93 105 93z" />
    <glyph glyph-name="uni0156" unicode="&#x156;" horiz-adv-x="401" 
d="M126 0h-78v700h153q83 0 120.5 -38.5t37.5 -120.5v-43q0 -116 -81 -141v-1q82 -21 82 -146v-125q0 -58 10 -85h-79q-9 30 -9 85v129q0 56 -21 79t-72 23h-63v-316zM126 629v-242h63q48 0 70 22.5t22 73.5v50q0 51 -19 73.5t-63 22.5h-73zM203 -184h-29l32 53h-34v84h75
v-77z" />
    <glyph glyph-name="uni0157" unicode="&#x157;" horiz-adv-x="264" 
d="M219 513q21 0 33 -6v-74q-15 5 -31 5q-98 0 -98 -145v-293h-75v503h65l1 -83q26 93 105 93zM82 -131h-34v84h75v-77l-44 -60h-29z" />
    <glyph glyph-name="Rcaron" unicode="&#x158;" horiz-adv-x="401" 
d="M231 752h-79l-78 128h62l55 -84l56 84h61zM126 0h-78v700h153q83 0 120.5 -38.5t37.5 -120.5v-43q0 -116 -81 -141v-1q82 -21 82 -146v-125q0 -58 10 -85h-79q-9 30 -9 85v129q0 56 -21 79t-72 23h-63v-316zM126 629v-242h63q48 0 70 22.5t22 73.5v50q0 51 -19 73.5
t-63 22.5h-73z" />
    <glyph glyph-name="rcaron" unicode="&#x159;" horiz-adv-x="264" 
d="M259 693l-77 -128h-79l-78 128h62l55 -84l56 84h61zM113 503l1 -83q26 93 105 93q21 0 33 -6v-74q-15 5 -31 5q-98 0 -98 -145v-293h-75v503h65z" />
    <glyph glyph-name="Sacute" unicode="&#x15a;" horiz-adv-x="369" 
d="M197 752h-62l71 128h87zM28 160v39h74v-45q0 -93 81 -93q82 0 82 94q0 47 -24 85q-22 37 -84 88q-72 59 -101 107q-28 47 -28 108q0 79 41 123t116 44t114.5 -44t39.5 -125v-28h-74v33q0 93 -80 93t-80 -91q0 -43 24 -79t87 -87q72 -60 99 -109q28 -47 28 -112
q0 -82 -41.5 -126.5t-117.5 -44.5t-116 44t-40 126z" />
    <glyph glyph-name="sacute" unicode="&#x15b;" horiz-adv-x="339" 
d="M180 565h-62l71 128h87zM173 -10q-69 0 -107.5 38.5t-38.5 106.5v17h73v-19q0 -77 69 -77t69 73q0 22 -14 41q-8 12 -19 21.5t-21.5 15.5t-32.5 17q-37 20 -44 25q-17 11 -35 28q-40 36 -40 102q0 62 36 98t100 36q63 0 99.5 -37.5t36.5 -102.5v-10h-71v12q0 73 -64 73
q-29 0 -46.5 -18t-17.5 -50q0 -24 14 -44q13 -17 27.5 -27t48.5 -27q49 -25 79 -53q39 -35 39 -99q0 -66 -37 -103t-103 -37z" />
    <glyph glyph-name="Scircumflex" unicode="&#x15c;" horiz-adv-x="369" 
d="M129 752h-62l78 128h79l77 -128h-61l-56 84zM28 160v39h74v-45q0 -93 81 -93q82 0 82 94q0 47 -24 85q-22 37 -84 88q-72 59 -101 107q-28 47 -28 108q0 79 41 123t116 44t114.5 -44t39.5 -125v-28h-74v33q0 93 -80 93t-80 -91q0 -43 24 -79t87 -87q72 -60 99 -109
q28 -47 28 -112q0 -82 -41.5 -126.5t-117.5 -44.5t-116 44t-40 126z" />
    <glyph glyph-name="scircumflex" unicode="&#x15d;" horiz-adv-x="339" 
d="M112 565h-62l78 128h79l77 -128h-61l-56 84zM173 -10q-69 0 -107.5 38.5t-38.5 106.5v17h73v-19q0 -77 69 -77t69 73q0 22 -14 41q-8 12 -19 21.5t-21.5 15.5t-32.5 17q-37 20 -44 25q-17 11 -35 28q-40 36 -40 102q0 62 36 98t100 36q63 0 99.5 -37.5t36.5 -102.5v-10
h-71v12q0 73 -64 73q-29 0 -46.5 -18t-17.5 -50q0 -24 14 -44q13 -17 27.5 -27t48.5 -27q49 -25 79 -53q39 -35 39 -99q0 -66 -37 -103t-103 -37z" />
    <glyph glyph-name="Scedilla" unicode="&#x15e;" horiz-adv-x="369" 
d="M343 161q0 -76 -36 -120t-103 -50v-35q67 0 67 -50q0 -35 -22 -48t-70 -13q-89 0 -89 59v8h56v-8q0 -24 32 -24q36 0 36 27t-39 27h-10v57q-66 5 -101.5 49t-35.5 120v39h74v-45q0 -93 81 -93q82 0 82 94q0 47 -24 85q-22 37 -84 88q-72 59 -101 107q-28 47 -28 108
q0 79 41 123t116 44t114.5 -44t39.5 -125v-28h-74v33q0 93 -80 93t-80 -91q0 -43 24 -79t87 -87q72 -60 99 -109q28 -47 28 -112z" />
    <glyph glyph-name="scedilla" unicode="&#x15f;" horiz-adv-x="339" 
d="M313 130q0 -61 -32 -98t-91 -41v-35q67 0 67 -50q0 -35 -22 -48t-70 -13q-89 0 -89 59v8h56v-8q0 -24 32 -24q36 0 36 27t-39 27h-10v57q-59 6 -91.5 44t-32.5 100v17h73v-19q0 -77 69 -77t69 73q0 22 -14 41q-8 12 -19 21.5t-21.5 15.5t-32.5 17q-37 20 -44 25
q-17 11 -35 28q-40 36 -40 102q0 62 36 98t100 36q63 0 99.5 -37.5t36.5 -102.5v-10h-71v12q0 73 -64 73q-29 0 -46.5 -18t-17.5 -50q0 -24 14 -44q13 -17 27.5 -27t48.5 -27q49 -25 79 -53q39 -35 39 -99z" />
    <glyph glyph-name="Scaron" unicode="&#x160;" horiz-adv-x="369" 
d="M224 752h-79l-78 128h62l55 -84l56 84h61zM28 160v39h74v-45q0 -93 81 -93q82 0 82 94q0 47 -24 85q-22 37 -84 88q-72 59 -101 107q-28 47 -28 108q0 79 41 123t116 44t114.5 -44t39.5 -125v-28h-74v33q0 93 -80 93t-80 -91q0 -43 24 -79t87 -87q72 -60 99 -109
q28 -47 28 -112q0 -82 -41.5 -126.5t-117.5 -44.5t-116 44t-40 126z" />
    <glyph glyph-name="scaron" unicode="&#x161;" horiz-adv-x="339" 
d="M207 565h-79l-78 128h62l55 -84l56 84h61zM173 -10q-69 0 -107.5 38.5t-38.5 106.5v17h73v-19q0 -77 69 -77t69 73q0 22 -14 41q-8 12 -19 21.5t-21.5 15.5t-32.5 17q-37 20 -44 25q-17 11 -35 28q-40 36 -40 102q0 62 36 98t100 36q63 0 99.5 -37.5t36.5 -102.5v-10h-71
v12q0 73 -64 73q-29 0 -46.5 -18t-17.5 -50q0 -24 14 -44q13 -17 27.5 -27t48.5 -27q49 -25 79 -53q39 -35 39 -99q0 -66 -37 -103t-103 -37z" />
    <glyph glyph-name="uni0162" unicode="&#x162;" horiz-adv-x="359" 
d="M219 629v-629h-19v-44q67 0 67 -50q0 -35 -22 -48t-70 -13q-89 0 -89 59v8h56v-8q0 -24 32 -24q36 0 36 27t-39 27h-10v66h-20v629h-124v71h326v-71h-124z" />
    <glyph glyph-name="uni0163" unicode="&#x163;" horiz-adv-x="265" 
d="M245 503v-64h-91v-326q0 -30 11 -43t38 -13q21 0 42 8v-65q-21 -10 -56 -10q-12 0 -15 1v-35q67 0 67 -50q0 -35 -22 -48t-70 -13q-89 0 -89 59v8h56v-8q0 -24 32 -24q36 0 36 27t-39 27h-10v65q-57 22 -57 106v334h-62v64h65l8 145h65v-145h91z" />
    <glyph glyph-name="Tcaron" unicode="&#x164;" horiz-adv-x="359" 
d="M220 752h-79l-78 128h62l55 -84l56 84h61zM219 0h-78v629h-124v71h326v-71h-124v-629z" />
    <glyph glyph-name="tcaron" unicode="&#x165;" horiz-adv-x="276" 
d="M190 640v94h72v-87l-36 -101h-33l24 94h-27zM89 648h65v-145h91v-64h-91v-326q0 -30 11 -43t38 -13q21 0 42 8v-65q-21 -10 -56 -10q-111 0 -111 115v334h-62v64h65z" />
    <glyph glyph-name="Tbar" unicode="&#x166;" horiz-adv-x="359" 
d="M343 700v-71h-124v-228h83v-72h-83v-329h-78v329h-85v72h85v228h-124v71h326z" />
    <glyph glyph-name="tbar" unicode="&#x167;" horiz-adv-x="265" 
d="M245 503v-64h-91v-152h74v-54h-74v-120q0 -30 11 -43t38 -13q21 0 42 8v-65q-21 -10 -56 -10q-111 0 -111 115v128h-52v54h52v152h-62v64h65l8 145h65v-145h91z" />
    <glyph glyph-name="Utilde" unicode="&#x168;" horiz-adv-x="403" 
d="M122 766l-41 23q32 74 80 74q25 0 53 -21q21 -15 32 -15q23 0 39 40l41 -23q-32 -74 -80 -74q-26 0 -53 21q-21 15 -32 15q-23 0 -39 -40zM202 -10q-78 0 -118 44.5t-40 128.5v537h78v-543q0 -96 81 -96t81 96v543h76v-537q0 -84 -40.5 -128.5t-117.5 -44.5z" />
    <glyph glyph-name="utilde" unicode="&#x169;" horiz-adv-x="385" 
d="M150 619q-23 0 -39 -40l-41 23q32 74 80 74q24 0 53 -21q21 -15 32 -15q23 0 39 40l41 -23q-32 -74 -80 -74q-26 0 -53 21q-21 15 -32 15zM262 169v334h75v-503h-65l-1 67q-32 -77 -111 -77q-116 0 -116 146v367h76v-358q0 -88 63 -88q36 0 57.5 29.5t21.5 82.5z" />
    <glyph glyph-name="Umacron" unicode="&#x16a;" horiz-adv-x="403" 
d="M308 787h-212v59h212v-59zM202 -10q-78 0 -118 44.5t-40 128.5v537h78v-543q0 -96 81 -96t81 96v543h76v-537q0 -84 -40.5 -128.5t-117.5 -44.5z" />
    <glyph glyph-name="umacron" unicode="&#x16b;" horiz-adv-x="385" 
d="M85 659h212v-59h-212v59zM262 169v334h75v-503h-65l-1 67q-32 -77 -111 -77q-116 0 -116 146v367h76v-358q0 -88 63 -88q36 0 57.5 29.5t21.5 82.5z" />
    <glyph glyph-name="Ubreve" unicode="&#x16c;" horiz-adv-x="403" 
d="M97 869h49q6 -53 56 -53q52 0 58 53h48q-2 -50 -29.5 -78t-76.5 -28t-76 27.5t-29 78.5zM202 -10q-78 0 -118 44.5t-40 128.5v537h78v-543q0 -96 81 -96t81 96v543h76v-537q0 -84 -40.5 -128.5t-117.5 -44.5z" />
    <glyph glyph-name="ubreve" unicode="&#x16d;" horiz-adv-x="385" 
d="M86 682h49q6 -53 56 -53q52 0 58 53h48q-2 -50 -29.5 -78t-76.5 -28t-76 27.5t-29 78.5zM262 169v334h75v-503h-65l-1 67q-32 -77 -111 -77q-116 0 -116 146v367h76v-358q0 -88 63 -88q36 0 57.5 29.5t21.5 82.5z" />
    <glyph glyph-name="Uring" unicode="&#x16e;" horiz-adv-x="403" 
d="M259 775q-23 -23 -57 -23t-57 23t-23 56t23 56t57 23t57 -23t23 -56t-23 -56zM177 804q10 -10 25 -10t25 10q11 11 11 27t-11 27q-10 11 -25 11t-25 -11t-10 -27t10 -27zM202 -10q-78 0 -118 44.5t-40 128.5v537h78v-543q0 -96 81 -96t81 96v543h76v-537
q0 -84 -40.5 -128.5t-117.5 -44.5z" />
    <glyph glyph-name="uring" unicode="&#x16f;" horiz-adv-x="385" 
d="M248 588q-23 -23 -57 -23t-57 23t-23 56t23 56t57 23t57 -23t23 -56t-23 -56zM216 671q-10 11 -25 11t-25 -11t-10 -27t10 -27q10 -10 25 -10t25 10q11 11 11 27t-11 27zM262 169v334h75v-503h-65l-1 67q-32 -77 -111 -77q-116 0 -116 146v367h76v-358q0 -88 63 -88
q36 0 57.5 29.5t21.5 82.5z" />
    <glyph glyph-name="Uhungarumlaut" unicode="&#x170;" horiz-adv-x="403" 
d="M147 752h-57l71 128h82zM279 752h-57l70 128h83zM202 -10q-78 0 -118 44.5t-40 128.5v537h78v-543q0 -96 81 -96t81 96v543h76v-537q0 -84 -40.5 -128.5t-117.5 -44.5z" />
    <glyph glyph-name="uhungarumlaut" unicode="&#x171;" horiz-adv-x="385" 
d="M150 693h82l-96 -128h-57zM364 693l-96 -128h-57l70 128h83zM262 169v334h75v-503h-65l-1 67q-32 -77 -111 -77q-116 0 -116 146v367h76v-358q0 -88 63 -88q36 0 57.5 29.5t21.5 82.5z" />
    <glyph glyph-name="Uogonek" unicode="&#x172;" horiz-adv-x="403" 
d="M284 157v543h76v-537q0 -140 -108 -167q-34 -28 -34 -66t43 -38q15 0 38 9l-1 -45q-30 -11 -57 -11q-84 0 -84 64q0 48 46 81h-1q-78 0 -118 44.5t-40 128.5v537h78v-543q0 -96 81 -96t81 96z" />
    <glyph glyph-name="uogonek" unicode="&#x173;" horiz-adv-x="385" 
d="M307 -108q15 0 38 9l-1 -45q-28 -11 -57 -11q-84 0 -84 65q0 56 69 93l-1 64q-32 -77 -111 -77q-116 0 -116 146v367h76v-358q0 -88 63 -88q36 0 57.5 29.5t21.5 82.5v334h75v-503h-29q-44 -35 -44 -70q0 -38 43 -38z" />
    <glyph glyph-name="Wcircumflex" unicode="&#x174;" horiz-adv-x="558" 
d="M224 752h-62l78 128h79l77 -128h-61l-56 84zM211 0h-105l-86 700h76l70 -592l72 592h88l73 -592l70 592h69l-86 -700h-100l-70 546z" />
    <glyph glyph-name="wcircumflex" unicode="&#x175;" horiz-adv-x="534" 
d="M213 565h-62l78 128h79l77 -128h-61l-56 84zM204 0h-97l-87 503h74l70 -399l67 399h79l67 -399l70 399h68l-87 -503h-92l-66 363z" />
    <glyph glyph-name="Ycircumflex" unicode="&#x176;" horiz-adv-x="389" 
d="M140 752h-62l78 128h79l77 -128h-61l-56 84zM234 0h-78v307l-141 393h83l100 -292l100 292h77l-141 -393v-307z" />
    <glyph glyph-name="ycircumflex" unicode="&#x177;" horiz-adv-x="355" 
d="M234 565l-56 84l-55 -84h-62l78 128h79l77 -128h-61zM267 503h70l-106 -468l-21 -92q-13 -58 -41 -83t-80 -25q-34 0 -51 10v65q18 -8 40 -8q27 0 39 11t19 41l9 40l-128 509h77l91 -383z" />
    <glyph glyph-name="Ydieresis" unicode="&#x178;" horiz-adv-x="389" 
d="M167 762h-70v108h70v-108zM293 762h-70v108h70v-108zM234 0h-78v307l-141 393h83l100 -292l100 292h77l-141 -393v-307z" />
    <glyph glyph-name="Zacute" unicode="&#x179;" horiz-adv-x="355" 
d="M195 752h-62l71 128h87zM332 0h-311v70l227 559h-217v71h301v-69l-227 -560h227v-71z" />
    <glyph glyph-name="zacute" unicode="&#x17a;" horiz-adv-x="328" 
d="M181 565h-62l71 128h87zM302 0h-278v63l198 376h-188v64h268v-63l-198 -375h198v-65z" />
    <glyph glyph-name="Zdotaccent" unicode="&#x17b;" horiz-adv-x="355" 
d="M220 762h-75v108h75v-108zM332 0h-311v70l227 559h-217v71h301v-69l-227 -560h227v-71z" />
    <glyph glyph-name="zdotaccent" unicode="&#x17c;" horiz-adv-x="328" 
d="M206 575h-75v108h75v-108zM302 0h-278v63l198 376h-188v64h268v-63l-198 -375h198v-65z" />
    <glyph glyph-name="Zcaron" unicode="&#x17d;" horiz-adv-x="355" 
d="M222 752h-79l-78 128h62l55 -84l56 84h61zM332 0h-311v70l227 559h-217v71h301v-69l-227 -560h227v-71z" />
    <glyph glyph-name="zcaron" unicode="&#x17e;" horiz-adv-x="328" 
d="M208 565h-79l-78 128h62l55 -84l56 84h61zM302 0h-278v63l198 376h-188v64h268v-63l-198 -375h198v-65z" />
    <glyph glyph-name="florin" unicode="&#x192;" 
d="M282 362v-2q90 -28 90 -149v-23q0 -133 -106 -157v-86h-52v80h-3h-62v-80h-52v80h-73v71h43v508h-43v71h73v70h52v-70h54h11v70h52v-77q95 -24 95 -149v-15q0 -114 -79 -142zM283 487v21q0 51 -19 73.5t-63 22.5h-56v-213h46q48 0 70 22.5t22 73.5zM294 190v25
q0 57 -22.5 81t-76.5 24h-50v-224h66q43 0 63 22t20 72z" />
    <glyph glyph-name="AEacute" unicode="&#x1fc;" horiz-adv-x="581" 
d="M317 880h87l-96 -128h-62zM560 700v-71h-208v-228h169v-71h-169v-259h208v-71h-286v149h-139l-45 -149h-75l217 700h328zM274 605l-118 -388h118v388z" />
    <glyph glyph-name="aeacute" unicode="&#x1fd;" horiz-adv-x="578" 
d="M316 693h87l-96 -128h-62zM544 351v-111h-222v-94q0 -89 74 -89q75 0 75 89v15h73v-8q0 -78 -38.5 -120.5t-110.5 -42.5q-91 0 -128 66q-35 -66 -120 -66q-56 0 -88.5 33t-32.5 91t28.5 95.5t96.5 69.5q59 27 79 43q16 13 16 39v12q0 75 -64 75q-33 0 -52 -20t-19 -57
v-15h-71v11q0 69 36.5 107.5t99.5 38.5q84 0 111 -61q31 61 114 61q68 0 105.5 -42t37.5 -120zM395 446q-73 0 -73 -88v-56h148v56q0 88 -75 88zM164 56q39 0 60.5 29.5t21.5 83.5v102q-11 -15 -73 -47q-71 -36 -71 -99q0 -69 62 -69z" />
    <glyph glyph-name="Oslashacute" unicode="&#x1fe;" 
d="M222 880h87l-96 -128h-62zM323 726l44 -19l-27 -69q21 -40 21 -100v-375q0 -83 -41.5 -128t-119.5 -45q-63 0 -104 32l-19 -48l-44 19l28 71q-21 39 -21 99v375q0 83 41.5 127.5t118.5 44.5q64 0 105 -31zM118 543v-335l155 391q-19 40 -73 40q-82 0 -82 -96zM283 158
v337l-155 -392q20 -42 72 -42q83 0 83 97z" />
    <glyph glyph-name="oslashacute" unicode="&#x1ff;" horiz-adv-x="371" 
d="M208 693h87l-96 -128h-62zM332 513l-26 -55q28 -41 28 -107v-198q0 -78 -38.5 -120.5t-109.5 -42.5q-54 0 -88 24l-20 -42l-38 19l26 55q-28 40 -28 107v198q0 78 38 120t110 42q53 0 88 -23l20 42zM113 358v-212l129 275q-16 25 -56 25q-73 0 -73 -88zM186 57
q72 0 72 89v209l-129 -273q19 -25 57 -25z" />
    <glyph glyph-name="uni0218" unicode="&#x218;" horiz-adv-x="369" 
d="M28 160v39h74v-45q0 -93 81 -93q82 0 82 94q0 47 -24 85q-22 37 -84 88q-72 59 -101 107q-28 47 -28 108q0 79 41 123t116 44t114.5 -44t39.5 -125v-28h-74v33q0 93 -80 93t-80 -91q0 -43 24 -79t87 -87q72 -60 99 -109q28 -47 28 -112q0 -82 -41.5 -126.5t-117.5 -44.5
t-116 44t-40 126zM178 -184h-29l32 53h-34v84h75v-77z" />
    <glyph glyph-name="uni0219" unicode="&#x219;" horiz-adv-x="339" 
d="M173 -10q-69 0 -107.5 38.5t-38.5 106.5v17h73v-19q0 -77 69 -77t69 73q0 22 -14 41q-8 12 -19 21.5t-21.5 15.5t-32.5 17q-37 20 -44 25q-17 11 -35 28q-40 36 -40 102q0 62 36 98t100 36q63 0 99.5 -37.5t36.5 -102.5v-10h-71v12q0 73 -64 73q-29 0 -46.5 -18
t-17.5 -50q0 -24 14 -44q13 -17 27.5 -27t48.5 -27q49 -25 79 -53q39 -35 39 -99q0 -66 -37 -103t-103 -37zM164 -184h-29l32 53h-34v84h75v-77z" />
    <glyph glyph-name="uni021A" unicode="&#x21a;" horiz-adv-x="359" 
d="M219 0h-78v629h-124v71h326v-71h-124v-629zM174 -184h-29l32 53h-34v84h75v-77z" />
    <glyph glyph-name="uni021B" unicode="&#x21b;" horiz-adv-x="265" 
d="M245 503v-64h-91v-326q0 -30 11 -43t38 -13q21 0 42 8v-65q-21 -10 -56 -10q-111 0 -111 115v334h-62v64h65l8 145h65v-145h91zM151 -131h-34v84h75v-77l-44 -60h-29z" />
    <glyph glyph-name="uni0237" unicode="&#x237;" horiz-adv-x="171" 
d="M30 -165q-29 0 -48 10v64q18 -7 34 -7q17 0 24.5 8.5t7.5 29.5v563h75v-569q0 -99 -93 -99z" />
    <glyph glyph-name="uni02BC" unicode="&#x2bc;" horiz-adv-x="0" 
d="M-2 512h-32l25 91h-29v97h76v-89z" />
    <glyph glyph-name="circumflex" unicode="&#x2c6;" horiz-adv-x="500" 
d="M195 565h-62l78 128h79l77 -128h-61l-56 84z" />
    <glyph glyph-name="caron" unicode="&#x2c7;" horiz-adv-x="500" 
d="M290 565h-79l-78 128h62l55 -84l56 84h61z" />
    <glyph glyph-name="uni02C9" unicode="&#x2c9;" horiz-adv-x="500" 
d="M356 600h-212v59h212v-59z" />
    <glyph glyph-name="breve" unicode="&#x2d8;" horiz-adv-x="500" 
d="M145 682h49q6 -53 56 -53q52 0 58 53h48q-2 -50 -29.5 -78t-76.5 -28t-76 27.5t-29 78.5z" />
    <glyph glyph-name="dotaccent" unicode="&#x2d9;" horiz-adv-x="500" 
d="M288 575h-75v108h75v-108z" />
    <glyph glyph-name="ring" unicode="&#x2da;" horiz-adv-x="500" 
d="M307 588q-23 -23 -57 -23t-57 23t-23 56t23 56t57 23t57 -23t23 -56t-23 -56zM225 617q10 -10 25 -10t25 10q11 11 11 27t-11 27q-10 11 -25 11t-25 -11t-10 -27t10 -27z" />
    <glyph glyph-name="ogonek" unicode="&#x2db;" horiz-adv-x="500" 
d="M264 -155q-84 0 -84 64q0 57 68 95h38q-45 -31 -45 -74q0 -38 43 -38q16 0 38 9l-1 -45q-30 -11 -57 -11z" />
    <glyph glyph-name="tilde" unicode="&#x2dc;" horiz-adv-x="500" 
d="M170 579l-41 23q32 74 80 74q25 0 53 -21q21 -15 32 -15q23 0 39 40l41 -23q-32 -74 -80 -74q-26 0 -53 21q-21 15 -32 15q-23 0 -39 -40z" />
    <glyph glyph-name="hungarumlaut" unicode="&#x2dd;" horiz-adv-x="500" 
d="M195 565h-57l71 128h82zM327 565h-57l70 128h83z" />
    <glyph glyph-name="gravecomb" unicode="&#x300;" horiz-adv-x="0" 
d="M49 565h-62l-96 128h87z" />
    <glyph glyph-name="acutecomb" unicode="&#x301;" horiz-adv-x="0" 
d="M13 565h-62l71 128h87z" />
    <glyph glyph-name="uni0302" unicode="&#x302;" horiz-adv-x="0" 
d="M-56 565h-61l77 128h80l77 -128h-61l-56 84z" />
    <glyph glyph-name="tildecomb" unicode="&#x303;" horiz-adv-x="0" 
d="M-81 579l-41 23q33 74 80 74q22 0 54 -21q21 -15 32 -15q23 0 39 40l41 -23q-32 -74 -80 -74q-26 0 -54 21q-20 15 -32 15q-23 0 -39 -40z" />
    <glyph glyph-name="uni0304" unicode="&#x304;" horiz-adv-x="0" 
d="M106 600h-212v59h212v-59z" />
    <glyph glyph-name="uni0306" unicode="&#x306;" horiz-adv-x="0" 
d="M0 576q-100 0 -105 106h49q5 -53 56 -53q52 0 58 53h48q-2 -50 -29.5 -78t-76.5 -28z" />
    <glyph glyph-name="uni0307" unicode="&#x307;" horiz-adv-x="0" 
d="M38 575h-76v108h76v-108z" />
    <glyph glyph-name="uni0308" unicode="&#x308;" horiz-adv-x="0" 
d="M-28 575h-70v108h70v-108zM98 575h-70v108h70v-108z" />
    <glyph glyph-name="uni030A" unicode="&#x30a;" horiz-adv-x="0" 
d="M57 588q-23 -23 -57 -23t-57 23t-23 56t23 56t57 23t57 -23t23 -56t-23 -56zM-25 617q10 -10 25 -10t25 10q11 11 11 27t-11 27q-10 11 -25 11t-25 -11q-11 -11 -11 -27t11 -27z" />
    <glyph glyph-name="uni030B" unicode="&#x30b;" horiz-adv-x="0" 
d="M-55 565h-57l70 128h83zM77 565h-57l70 128h83z" />
    <glyph glyph-name="uni030C" unicode="&#x30c;" horiz-adv-x="0" 
d="M40 565h-80l-77 128h61l56 -84l56 84h61z" />
    <glyph glyph-name="uni0312" unicode="&#x312;" horiz-adv-x="0" 
d="M38 575h-76v78l41 60h29l-29 -53h35v-85z" />
    <glyph glyph-name="uni0326" unicode="&#x326;" horiz-adv-x="0" 
d="M-7 -184h-29l33 53h-35v84h76v-77z" />
    <glyph glyph-name="uni0327" unicode="&#x327;" horiz-adv-x="0" 
d="M-6 -155q-88 0 -88 59v8h55v-8q0 -24 32 -24q37 0 37 27t-40 27h-9v76h39v-54q67 0 67 -50q0 -35 -22 -48t-71 -13z" />
    <glyph glyph-name="uni0328" unicode="&#x328;" horiz-adv-x="0" 
d="M14 -155q-85 0 -85 64q0 56 68 95h39q-45 -31 -45 -74q0 -38 43 -38q16 0 38 9l-1 -45q-28 -11 -57 -11z" />
    <glyph glyph-name="uni0335" unicode="&#x335;" horiz-adv-x="0" 
d="M101 316h-202v68h202v-68z" />
    <glyph glyph-name="uni0336" unicode="&#x336;" horiz-adv-x="0" 
d="M203 318h-406v64h406v-64z" />
    <glyph glyph-name="uni0337" unicode="&#x337;" horiz-adv-x="0" 
d="M146 513l-254 -541l-38 19l254 541z" />
    <glyph glyph-name="uni0338" unicode="&#x338;" horiz-adv-x="0" 
d="M167 707l-290 -733l-44 19l290 733z" />
    <glyph glyph-name="uni0394" unicode="&#x394;" 
d="M383 0h-366l130 700h105zM196 606l-95 -535h191z" />
    <glyph glyph-name="uni03A9" unicode="&#x3a9;" horiz-adv-x="397" 
d="M179 0h-141v71h87l-2 2q-46 48 -65.5 103.5t-19.5 141.5v220q0 83 41.5 127.5t118.5 44.5t119 -44.5t42 -127.5v-220q0 -84 -19.5 -140t-65.5 -105l-2 -2h87v-71h-142v71q36 45 50 93.5t14 121.5v257q0 96 -83 96q-82 0 -82 -96v-257q0 -73 14 -121.5t49 -93.5v-71z" />
    <glyph glyph-name="uni03BC" unicode="&#x3bc;" horiz-adv-x="388" 
d="M265 169v334h76v-503h-66l-1 65q-32 -75 -111 -75q-18 0 -40 5v-150h-75v658h75v-358q0 -88 63 -88q37 0 58 29t21 83z" />
    <glyph glyph-name="pi" unicode="&#x3c0;" horiz-adv-x="438" 
d="M157 0h-75v439h-64v64h403v-64h-64v-439h-75v439h-125v-439z" />
    <glyph glyph-name="uni1E02" unicode="&#x1e02;" horiz-adv-x="402" 
d="M228 762h-75v108h75v-108zM212 0h-164v700h156q83 0 120.5 -38.5t37.5 -120.5v-29q0 -112 -78 -140v-2q89 -26 89 -147v-60q0 -163 -161 -163zM126 629v-228h66q48 0 70 22.5t22 73.5v36q0 51 -19 73.5t-63 22.5h-76zM126 330v-259h86q43 0 63 22t20 72v60q0 57 -22.5 81
t-76.5 24h-70z" />
    <glyph glyph-name="uni1E03" unicode="&#x1e03;" horiz-adv-x="384" 
d="M48 870h75v-108h-75v108zM226 513q118 0 118 -145v-232q0 -146 -118 -146q-82 0 -113 81l-10 -71h-55v700h75v-247q35 60 103 60zM269 142v220q0 84 -65 84q-37 0 -59 -29.5t-22 -82.5v-165q0 -53 22 -82.5t59 -29.5q65 0 65 85z" />
    <glyph glyph-name="uni1E0A" unicode="&#x1e0a;" horiz-adv-x="406" 
d="M232 762h-75v108h75v-108zM208 0h-160v700h160q158 0 158 -170v-360q0 -170 -158 -170zM126 629v-558h80q42 0 62 22.5t20 73.5v367q0 50 -19.5 72.5t-62.5 22.5h-80z" />
    <glyph glyph-name="uni1E0B" unicode="&#x1e0b;" horiz-adv-x="384" 
d="M261 870h75v-108h-75v108zM347 0h-69q-7 20 -8 68q-33 -78 -113 -78q-117 0 -117 146v232q0 145 117 145q69 0 104 -60v247h75v-563q0 -88 11 -137zM180 57q37 0 59 29.5t22 82.5v165q0 53 -22 82.5t-59 29.5q-64 0 -64 -84v-220q0 -85 64 -85z" />
    <glyph glyph-name="uni1E1E" unicode="&#x1e1e;" horiz-adv-x="342" 
d="M224 762h-75v108h75v-108zM126 0h-78v700h278v-71h-200v-238h161v-71h-161v-320z" />
    <glyph glyph-name="uni1E1F" unicode="&#x1e1f;" horiz-adv-x="262" 
d="M119 870h75v-108h-75v108zM205 643q-26 0 -37.5 -12.5t-11.5 -43.5v-84h91v-64h-91v-439h-75v439h-64v64h64v93q0 114 110 114q35 0 56 -10v-65q-21 8 -42 8z" />
    <glyph glyph-name="uni1E40" unicode="&#x1e40;" horiz-adv-x="527" 
d="M302 762h-75v108h75v-108zM117 0h-69v700h113l103 -559l102 559h114v-700h-75v584l-111 -584h-66l-111 584v-584z" />
    <glyph glyph-name="uni1E41" unicode="&#x1e41;" horiz-adv-x="590" 
d="M258 683h75v-108h-75v108zM433 513q113 0 113 -141v-372h-75v367q0 79 -60 79q-34 0 -55 -29.5t-21 -82.5v-334h-76v367q0 79 -60 79q-34 0 -55 -29.5t-21 -82.5v-334h-75v503h65l1 -66q31 76 108 76q81 0 104 -74q32 74 107 74z" />
    <glyph glyph-name="uni1E56" unicode="&#x1e56;" horiz-adv-x="383" 
d="M229 762h-75v108h75v-108zM126 0h-78v700h153q158 0 158 -170v-60q0 -169 -158 -169h-75v-301zM126 629v-257h75q42 0 61 21.5t19 72.5v69q0 51 -19 72.5t-61 21.5h-75z" />
    <glyph glyph-name="uni1E57" unicode="&#x1e57;" horiz-adv-x="384" 
d="M159 683h75v-108h-75v108zM226 513q118 0 118 -145v-232q0 -146 -118 -146q-68 0 -103 60v-205h-75v658h65l1 -68q32 78 112 78zM268 142v220q0 84 -64 84q-37 0 -59 -29.5t-22 -82.5v-165q0 -53 22 -82.5t59 -29.5q64 0 64 85z" />
    <glyph glyph-name="uni1E60" unicode="&#x1e60;" horiz-adv-x="369" 
d="M222 762h-75v108h75v-108zM28 160v39h74v-45q0 -93 81 -93q82 0 82 94q0 47 -24 85q-22 37 -84 88q-72 59 -101 107q-28 47 -28 108q0 79 41 123t116 44t114.5 -44t39.5 -125v-28h-74v33q0 93 -80 93t-80 -91q0 -43 24 -79t87 -87q72 -60 99 -109q28 -47 28 -112
q0 -82 -41.5 -126.5t-117.5 -44.5t-116 44t-40 126z" />
    <glyph glyph-name="uni1E61" unicode="&#x1e61;" horiz-adv-x="339" 
d="M205 575h-75v108h75v-108zM173 -10q-69 0 -107.5 38.5t-38.5 106.5v17h73v-19q0 -77 69 -77t69 73q0 22 -14 41q-8 12 -19 21.5t-21.5 15.5t-32.5 17q-37 20 -44 25q-17 11 -35 28q-40 36 -40 102q0 62 36 98t100 36q63 0 99.5 -37.5t36.5 -102.5v-10h-71v12q0 73 -64 73
q-29 0 -46.5 -18t-17.5 -50q0 -24 14 -44q13 -17 27.5 -27t48.5 -27q49 -25 79 -53q39 -35 39 -99q0 -66 -37 -103t-103 -37z" />
    <glyph glyph-name="uni1E6A" unicode="&#x1e6a;" horiz-adv-x="359" 
d="M218 762h-75v108h75v-108zM219 0h-78v629h-124v71h326v-71h-124v-629z" />
    <glyph glyph-name="uni1E6B" unicode="&#x1e6b;" horiz-adv-x="265" 
d="M84 818h75v-108h-75v108zM245 503v-64h-91v-326q0 -30 11 -43t38 -13q21 0 42 8v-65q-21 -10 -56 -10q-111 0 -111 115v334h-62v64h65l8 145h65v-145h91z" />
    <glyph glyph-name="Wgrave" unicode="&#x1e80;" horiz-adv-x="558" 
d="M328 752h-61l-96 128h87zM211 0h-105l-86 700h76l70 -592l72 592h88l73 -592l70 592h69l-86 -700h-100l-70 546z" />
    <glyph glyph-name="wgrave" unicode="&#x1e81;" horiz-adv-x="534" 
d="M317 565h-61l-96 128h87zM204 0h-97l-87 503h74l70 -399l67 399h79l67 -399l70 399h68l-87 -503h-92l-66 363z" />
    <glyph glyph-name="Wacute" unicode="&#x1e82;" horiz-adv-x="558" 
d="M292 752h-62l71 128h87zM211 0h-105l-86 700h76l70 -592l72 592h88l73 -592l70 592h69l-86 -700h-100l-70 546z" />
    <glyph glyph-name="wacute" unicode="&#x1e83;" horiz-adv-x="534" 
d="M281 565h-62l71 128h87zM204 0h-97l-87 503h74l70 -399l67 399h79l67 -399l70 399h68l-87 -503h-92l-66 363z" />
    <glyph glyph-name="Wdieresis" unicode="&#x1e84;" horiz-adv-x="558" 
d="M251 762h-70v108h70v-108zM377 762h-70v108h70v-108zM211 0h-105l-86 700h76l70 -592l72 592h88l73 -592l70 592h69l-86 -700h-100l-70 546z" />
    <glyph glyph-name="wdieresis" unicode="&#x1e85;" horiz-adv-x="534" 
d="M240 575h-70v108h70v-108zM366 575h-70v108h70v-108zM204 0h-97l-87 503h74l70 -399l67 399h79l67 -399l70 399h68l-87 -503h-92l-66 363z" />
    <glyph glyph-name="uni1E9E" unicode="&#x1e9e;" horiz-adv-x="408" 
d="M368 630l-99 -215q58 -11 83.5 -51.5t25.5 -113.5v-80q0 -170 -158 -170h-30v71h30q42 0 61 21.5t19 72.5v89q0 51 -19 72.5t-61 21.5h-28v67l99 214h-165v-629h-78v700h320v-70z" />
    <glyph glyph-name="Ygrave" unicode="&#x1ef2;" horiz-adv-x="389" 
d="M244 752h-61l-96 128h87zM234 0h-78v307l-141 393h83l100 -292l100 292h77l-141 -393v-307z" />
    <glyph glyph-name="ygrave" unicode="&#x1ef3;" horiz-adv-x="355" 
d="M157 693l70 -128h-61l-96 128h87zM267 503h70l-106 -468l-21 -92q-13 -58 -41 -83t-80 -25q-34 0 -51 10v65q18 -8 40 -8q27 0 39 11t19 41l9 40l-128 509h77l91 -383z" />
    <glyph glyph-name="uni2002" unicode="&#x2002;" horiz-adv-x="300" 
 />
    <glyph glyph-name="uni2003" unicode="&#x2003;" horiz-adv-x="500" 
 />
    <glyph glyph-name="uni2007" unicode="&#x2007;" 
 />
    <glyph glyph-name="uni2008" unicode="&#x2008;" horiz-adv-x="183" 
 />
    <glyph glyph-name="uni200B" unicode="&#x200b;" horiz-adv-x="0" 
 />
    <glyph glyph-name="figuredash" unicode="&#x2012;" 
d="M400 271h-400v58h400v-58z" />
    <glyph glyph-name="endash" unicode="&#x2013;" horiz-adv-x="300" 
d="M300 271h-300v58h300v-58z" />
    <glyph glyph-name="emdash" unicode="&#x2014;" horiz-adv-x="500" 
d="M500 271h-500v58h500v-58z" />
    <glyph glyph-name="quoteleft" unicode="&#x2018;" horiz-adv-x="183" 
d="M101 702h37l-35 -108h28v-101h-79v93z" />
    <glyph glyph-name="quoteright" unicode="&#x2019;" horiz-adv-x="183" 
d="M82 492h-36l34 108h-28v100h79v-93z" />
    <glyph glyph-name="quotesinglbase" unicode="&#x201a;" horiz-adv-x="183" 
d="M82 -108h-36l34 108h-28v101h79v-93z" />
    <glyph glyph-name="quotedblleft" unicode="&#x201c;" horiz-adv-x="309" 
d="M101 700h37l-35 -108h28v-100h-79v93zM227 700h37l-35 -108h28v-100h-79v93z" />
    <glyph glyph-name="quotedblright" unicode="&#x201d;" horiz-adv-x="309" 
d="M82 492h-36l34 108h-28v100h79v-93zM208 492h-37l35 108h-28v100h79v-93z" />
    <glyph glyph-name="quotedblbase" unicode="&#x201e;" horiz-adv-x="309" 
d="M82 -108h-36l34 108h-28v101h79v-93zM208 -108h-37l35 108h-28v101h79v-93z" />
    <glyph glyph-name="dagger" unicode="&#x2020;" horiz-adv-x="411" 
d="M241 -97h-71v535h-141v68h141v194h71v-194h142v-68h-142v-535z" />
    <glyph glyph-name="daggerdbl" unicode="&#x2021;" horiz-adv-x="420" 
d="M246 -97h-71v206h-142v68h142v261h-142v68h142v194h71v-194h141v-68h-141v-261h141v-68h-141v-206z" />
    <glyph glyph-name="bullet" unicode="&#x2022;" horiz-adv-x="300" 
d="M150 237q-26 0 -44.5 18.5t-18.5 44.5q0 27 18.5 45t44.5 18q27 0 45 -18t18 -45q0 -26 -18 -44.5t-45 -18.5z" />
    <glyph glyph-name="ellipsis" unicode="&#x2026;" horiz-adv-x="500" 
d="M123 0h-79v101h79v-101zM290 0h-79v101h79v-101zM457 0h-79v101h79v-101z" />
    <glyph glyph-name="perthousand" unicode="&#x2030;" horiz-adv-x="823" 
d="M28 420v180q0 53 26.5 82t76.5 29q49 0 76 -29t27 -82v-180q0 -53 -26.5 -81.5t-76.5 -28.5t-76.5 28.5t-26.5 81.5zM175 0h-54l273 700h53zM180 416v188q0 58 -49 58t-49 -58v-188q0 -58 49 -58t49 58zM439 -10q-50 0 -76.5 29t-26.5 82v180q0 53 26.5 81.5t76.5 28.5
t76.5 -28.5t26.5 -81.5v-180q0 -53 -27 -82t-76 -29zM693 -10q-50 0 -76.5 29t-26.5 82v180q0 53 26.5 81.5t76.5 28.5t76.5 -28.5t26.5 -81.5v-180q0 -53 -27 -82t-76 -29zM488 97v188q0 58 -49 58t-49 -58v-188q0 -58 49 -58t49 58zM742 97v188q0 58 -49 58t-49 -58v-188
q0 -58 49 -58t49 58z" />
    <glyph glyph-name="guilsinglleft" unicode="&#x2039;" horiz-adv-x="179" 
d="M150 196h-58l-65 104l65 100h58l-51 -100z" />
    <glyph glyph-name="guilsinglright" unicode="&#x203a;" horiz-adv-x="179" 
d="M87 196h-58l51 104l-51 100h58l65 -100z" />
    <glyph glyph-name="fraction" unicode="&#x2044;" horiz-adv-x="87" 
d="M-66 0h-54l273 700h54z" />
    <glyph glyph-name="uni2070" unicode="&#x2070;" horiz-adv-x="283" 
d="M142 341q-50 0 -76.5 29t-26.5 82v243q0 53 26.5 81.5t76.5 28.5t76.5 -28.5t26.5 -81.5v-243q0 -53 -27 -82t-76 -29zM191 448v251q0 58 -49 58t-49 -58v-251q0 -58 49 -58t49 58z" />
    <glyph glyph-name="uni2074" unicode="&#x2074;" horiz-adv-x="283" 
d="M223 351h-54v87h-142v49l137 308h59v-309h35v-48h-35v-87zM170 700l-93 -214h93v214z" />
    <glyph glyph-name="uni2075" unicode="&#x2075;" horiz-adv-x="283" 
d="M144 341q-50 0 -76 29t-26 81v25h51v-28q0 -57 49 -57t49 57v97q0 58 -46 58q-43 0 -50 -48v-9h-51l13 249h178v-48h-131l-7 -131q23 36 68 36q80 0 80 -103v-98q0 -52 -25.5 -81t-75.5 -29z" />
    <glyph glyph-name="uni2076" unicode="&#x2076;" horiz-adv-x="283" 
d="M145 341q-50 0 -76.5 29t-26.5 82v241q0 112 103 112q49 0 75.5 -28.5t26.5 -81.5v-6h-51v10q0 58 -49 58q-51 0 -51 -67v-101q20 41 70 41q82 0 82 -101v-77q0 -53 -27 -82t-76 -29zM194 447v77q0 58 -48 58q-23 0 -36.5 -16t-13.5 -45v-74q0 -57 49 -57t49 57z" />
    <glyph glyph-name="uni2077" unicode="&#x2077;" horiz-adv-x="283" 
d="M122 351h-55l122 396h-151v48h204v-47z" />
    <glyph glyph-name="uni2078" unicode="&#x2078;" horiz-adv-x="283" 
d="M34 451v38q0 71 49 92v2q-46 21 -46 88v25q0 52 27 80.5t77 28.5q51 0 78.5 -28.5t27.5 -80.5v-25q0 -67 -47 -88v-2q50 -21 50 -92v-38q0 -52 -28 -81t-81 -29t-80 29t-27 81zM193 664v33q0 60 -51 60t-51 -60v-33q0 -57 51 -57t51 57zM196 451v47q0 61 -54 61t-54 -61
v-47q0 -61 54 -61t54 61z" />
    <glyph glyph-name="uni2079" unicode="&#x2079;" horiz-adv-x="283" 
d="M138 341q-49 0 -75 28.5t-26 82.5v6h51v-10q0 -58 49 -58q51 0 51 66v101q-23 -41 -71 -41q-82 0 -82 102v77q0 53 27 81.5t77 28.5q49 0 76 -28.5t27 -81.5v-241q0 -113 -104 -113zM137 565q23 0 37 16t14 44v74q0 58 -49 58q-50 0 -50 -58v-77q0 -57 48 -57z" />
    <glyph glyph-name="uni2080" unicode="&#x2080;" horiz-adv-x="283" 
d="M39 36v243q0 53 26.5 81.5t76.5 28.5t76.5 -28.5t26.5 -81.5v-243q0 -54 -26.5 -82.5t-76.5 -28.5t-76.5 28.5t-26.5 82.5zM191 32v251q0 58 -49 58t-49 -58v-251q0 -59 49 -59t49 59z" />
    <glyph glyph-name="uni2081" unicode="&#x2081;" horiz-adv-x="283" 
d="M192 -65h-54v358q-33 -11 -76 -12v40q39 1 60 14t33 44h37v-444z" />
    <glyph glyph-name="uni2082" unicode="&#x2082;" horiz-adv-x="283" 
d="M240 -65h-197v42q0 51 17.5 90t59.5 81q39 40 55 69.5t16 62.5q0 61 -48 61q-49 0 -49 -58v-37h-51v34q0 52 25.5 80.5t75.5 28.5t75.5 -28t25.5 -79q0 -42 -19.5 -79t-65.5 -85q-37 -40 -50.5 -66t-13.5 -59v-10h144v-48z" />
    <glyph glyph-name="uni2083" unicode="&#x2083;" horiz-adv-x="283" 
d="M138 -75q-101 0 -101 111v34h51v-38q0 -59 49 -59t49 64v42q0 64 -54 64h-26v48h29q51 0 51 59v27q0 64 -49 64t-49 -58v-26h-50v22q0 110 101 110t101 -110v-20q0 -71 -51 -90v-2q51 -17 51 -92v-39q0 -111 -102 -111z" />
    <glyph glyph-name="uni2084" unicode="&#x2084;" horiz-adv-x="283" 
d="M223 -65h-54v87h-142v49l137 308h59v-309h35v-48h-35v-87zM170 284l-93 -214h93v214z" />
    <glyph glyph-name="uni2085" unicode="&#x2085;" horiz-adv-x="283" 
d="M144 -75q-50 0 -76 28.5t-26 81.5v25h51v-28q0 -58 49 -58t49 58v97q0 58 -46 58q-43 0 -50 -48v-9h-51l13 249h178v-48h-131l-7 -131q23 36 68 36q80 0 80 -103v-98q0 -52 -25.5 -81t-75.5 -29z" />
    <glyph glyph-name="uni2086" unicode="&#x2086;" horiz-adv-x="283" 
d="M145 -75q-50 0 -76.5 29t-26.5 82v241q0 112 103 112q49 0 75.5 -28.5t26.5 -81.5v-6h-51v10q0 58 -49 58q-51 0 -51 -67v-101q20 41 70 41q82 0 82 -101v-77q0 -53 -27 -82t-76 -29zM194 31v77q0 58 -48 58q-23 0 -36.5 -16t-13.5 -45v-74q0 -58 49 -58t49 58z" />
    <glyph glyph-name="uni2087" unicode="&#x2087;" horiz-adv-x="283" 
d="M122 -65h-55l122 396h-151v48h204v-47z" />
    <glyph glyph-name="uni2088" unicode="&#x2088;" horiz-adv-x="283" 
d="M34 35v38q0 71 49 92v2q-46 21 -46 88v25q0 52 27 80.5t77 28.5q51 0 78.5 -28.5t27.5 -80.5v-25q0 -67 -47 -88v-2q50 -21 50 -92v-38q0 -52 -28 -81t-81 -29t-80 29t-27 81zM193 248v33q0 60 -51 60t-51 -60v-33q0 -57 51 -57t51 57zM196 35v47q0 61 -54 61t-54 -61
v-47q0 -62 54 -62t54 62z" />
    <glyph glyph-name="uni2089" unicode="&#x2089;" horiz-adv-x="283" 
d="M138 -75q-49 0 -75 28.5t-26 82.5v6h51v-10q0 -59 49 -59q51 0 51 67v101q-23 -41 -71 -41q-82 0 -82 102v77q0 53 27 81.5t77 28.5q49 0 76 -28.5t27 -81.5v-241q0 -113 -104 -113zM137 149q23 0 37 16t14 44v74q0 58 -49 58q-50 0 -50 -58v-77q0 -57 48 -57z" />
    <glyph glyph-name="Euro" unicode="&#x20ac;" 
d="M60 160v124h-34v46h34v66h-34v45h34v99q0 82 40 126t115 44t115 -44t40 -126v-38h-74v43q0 94 -79 94t-79 -94v-104h170v-45h-170v-66h170v-46h-170v-129q0 -94 79 -94t79 94v67h74v-62q0 -82 -40 -126t-115 -44t-115 44t-40 126z" />
    <glyph glyph-name="uni20B9" unicode="&#x20b9;" 
d="M160 325h-31l242 -325h-96l-242 325v63h100q105 0 107 93h-207v63h207q-2 93 -107 93h-100l1 63h336l-1 -63h-97q40 -31 45 -93h52v-63h-52q-5 -71 -50 -114q-45 -42 -107 -42z" />
    <glyph glyph-name="uni20BF" unicode="&#x20bf;" 
d="M282 362v-2q90 -28 90 -149v-23q0 -133 -106 -157v-86h-52v80h-3h-62v-80h-52v80h-73v71h43v508h-43v71h73v70h52v-70h54h11v70h52v-77q95 -24 95 -149v-15q0 -114 -79 -142zM283 487v21q0 51 -19 73.5t-63 22.5h-56v-213h46q48 0 70 22.5t22 73.5zM294 190v25
q0 57 -22.5 81t-76.5 24h-50v-224h66q43 0 63 22t20 72z" />
    <glyph glyph-name="uni2113" unicode="&#x2113;" horiz-adv-x="232" 
d="M158 -10q-111 0 -111 115v595h76v-586q0 -30 11.5 -43t38.5 -13q23 0 41 8v-66q-21 -10 -56 -10z" />
    <glyph glyph-name="uni2116" unicode="&#x2116;" horiz-adv-x="659" 
d="M119 0h-71v700h102l125 -500v500h71v-700h-83l-144 569v-569zM516 284q-50 0 -78 30.5t-28 86.5v143q0 55 28 85.5t78 30.5q51 0 78.5 -30t27.5 -86v-143q0 -56 -27.5 -86.5t-78.5 -30.5zM516 333q53 0 53 63v153q0 63 -53 63q-52 0 -52 -63v-153q0 -63 52 -63zM619 179
h-205v48h205v-48z" />
    <glyph glyph-name="uni2117" unicode="&#x2117;" horiz-adv-x="754" 
d="M626 92q-99 -102 -249 -102t-249 102q-99 104 -99 258q0 155 99 257q99 103 249 103t249 -103q99 -102 99 -257q0 -154 -99 -258zM377 44q127 0 210 86q83 88 83 220q0 133 -83 219q-83 87 -210 87t-210 -86q-82 -85 -82 -220t82 -220q83 -86 210 -86zM346 127h-58v428
h110q109 0 109 -109v-39q0 -109 -109 -109h-52v-171zM346 501v-149h49q28 0 41 14t13 47v27q0 33 -13 47t-41 14h-49z" />
    <glyph glyph-name="uni2120" unicode="&#x2120;" horiz-adv-x="597" 
d="M27 426v20h51v-19q0 -46 47 -46t47 46q0 27 -14.5 42.5t-52.5 35.5q-42 20 -60 45t-18 63q0 42 25.5 67.5t70.5 25.5q46 0 71 -23.5t25 -65.5v-10h-51v9q0 45 -43 45q-20 0 -32 -11.5t-12 -32.5q0 -24 14 -39t54 -36q42 -22 59 -47t17 -63q0 -45 -26 -70.5t-73 -25.5
t-73 23.5t-26 66.5zM317 344h-47v356h78l64 -257l63 257h79v-356h-51v289l-72 -289h-41l-73 289v-289z" />
    <glyph glyph-name="trademark" unicode="&#x2122;" horiz-adv-x="599" 
d="M148 344h-54v307h-80v49h213v-49h-79v-307zM319 344h-47v356h78l64 -257l63 257h79v-356h-51v289l-72 -289h-41l-73 289v-289z" />
    <glyph glyph-name="uni2126" unicode="&#x2126;" horiz-adv-x="397" 
d="M179 0h-141v71h87l-2 2q-46 48 -65.5 103.5t-19.5 141.5v220q0 83 41.5 127.5t118.5 44.5t119 -44.5t42 -127.5v-220q0 -84 -19.5 -140t-65.5 -105l-2 -2h87v-71h-142v71q36 45 50 93.5t14 121.5v257q0 96 -83 96q-82 0 -82 -96v-257q0 -73 14 -121.5t49 -93.5v-71z" />
    <glyph glyph-name="estimated" unicode="&#x212e;" horiz-adv-x="821" 
d="M413 -10q-157 0 -269 106q-111 106 -111 254t111 254q112 106 269 106q158 0 268 -106q112 -106 112 -254v-9h-613q-8 0 -8 -7v-193q0 -5 11 -21q36 -52 97.5 -80t134.5 -28q146 0 244 120h56q-54 -67 -133.5 -104.5t-168.5 -37.5zM180 361h469q7 0 7 7v196q0 8 -12 22
q-42 49 -102 75.5t-127 26.5q-126 0 -232 -106q-11 -11 -11 -22v-192q0 -7 8 -7z" />
    <glyph glyph-name="uni2153" unicode="&#x2153;" horiz-adv-x="653" 
d="M192 256h-54v358q-33 -11 -76 -12v40q39 1 60 14t33 44h37v-444zM218 0h-54l272 700h54zM508 -10q-49 0 -75 29t-26 82v34h51v-38q0 -58 49 -58t49 63v42q0 64 -54 64h-26v48h29q51 0 51 59v27q0 64 -49 64t-49 -58v-26h-50v22q0 110 101 110t101 -110v-20q0 -70 -51 -90
v-2q51 -17 51 -92v-39q0 -111 -102 -111z" />
    <glyph glyph-name="uni2154" unicode="&#x2154;" horiz-adv-x="653" 
d="M240 256h-197v43q0 51 17.5 89.5t59.5 80.5q39 40 55 69.5t16 62.5q0 61 -48 61q-49 0 -49 -58v-37h-51v34q0 52 25.5 80.5t75.5 28.5t75.5 -28t25.5 -79q0 -42 -19.5 -79t-65.5 -85q-37 -40 -50.5 -66t-13.5 -58v-10h144v-49zM218 0h-54l272 700h54zM508 -10
q-49 0 -75 29t-26 82v34h51v-38q0 -58 49 -58t49 63v42q0 64 -54 64h-26v48h29q51 0 51 59v27q0 64 -49 64t-49 -58v-26h-50v22q0 110 101 110t101 -110v-20q0 -70 -51 -90v-2q51 -17 51 -92v-39q0 -111 -102 -111z" />
    <glyph glyph-name="oneeighth" unicode="&#x215b;" horiz-adv-x="653" 
d="M192 256h-54v358q-33 -11 -76 -12v40q39 1 60 14t33 44h37v-444zM218 0h-54l272 700h54zM404 100v38q0 71 49 92v2q-46 21 -46 88v25q0 52 27 80.5t77 28.5q51 0 78.5 -28.5t27.5 -80.5v-25q0 -67 -47 -88v-2q50 -21 50 -92v-38q0 -52 -28 -81t-81 -29t-80 29t-27 81z
M563 313v33q0 60 -51 60t-51 -60v-33q0 -57 51 -57t51 57zM566 100v47q0 61 -54 61t-54 -61v-47q0 -61 54 -61t54 61z" />
    <glyph glyph-name="threeeighths" unicode="&#x215c;" horiz-adv-x="653" 
d="M138 246q-49 0 -75 29t-26 82v34h51v-38q0 -58 49 -58t49 63v42q0 64 -54 64h-26v48h29q51 0 51 59v27q0 64 -49 64t-49 -58v-26h-50v22q0 110 101 110t101 -110v-20q0 -70 -51 -90v-2q51 -16 51 -92v-39q0 -111 -102 -111zM218 0h-54l272 700h54zM404 100v38q0 71 49 92
v2q-46 21 -46 88v25q0 52 27 80.5t77 28.5q51 0 78.5 -28.5t27.5 -80.5v-25q0 -67 -47 -88v-2q50 -21 50 -92v-38q0 -52 -28 -81t-81 -29t-80 29t-27 81zM563 313v33q0 60 -51 60t-51 -60v-33q0 -57 51 -57t51 57zM566 100v47q0 61 -54 61t-54 -61v-47q0 -61 54 -61t54 61z
" />
    <glyph glyph-name="fiveeighths" unicode="&#x215d;" horiz-adv-x="653" 
d="M144 246q-50 0 -76 29t-26 81v25h51v-28q0 -57 49 -57t49 57v97q0 58 -46 58q-43 0 -50 -48v-9h-51l13 249h178v-48h-131l-7 -131q23 36 68 36q80 0 80 -103v-98q0 -52 -25.5 -81t-75.5 -29zM218 0h-54l272 700h54zM404 100v38q0 71 49 92v2q-46 21 -46 88v25
q0 52 27 80.5t77 28.5q51 0 78.5 -28.5t27.5 -80.5v-25q0 -67 -47 -88v-2q50 -21 50 -92v-38q0 -52 -28 -81t-81 -29t-80 29t-27 81zM563 313v33q0 60 -51 60t-51 -60v-33q0 -57 51 -57t51 57zM566 100v47q0 61 -54 61t-54 -61v-47q0 -61 54 -61t54 61z" />
    <glyph glyph-name="seveneighths" unicode="&#x215e;" horiz-adv-x="653" 
d="M122 256h-55l122 396h-151v48h204v-47zM218 0h-54l272 700h54zM404 100v38q0 71 49 92v2q-46 21 -46 88v25q0 52 27 80.5t77 28.5q51 0 78.5 -28.5t27.5 -80.5v-25q0 -67 -47 -88v-2q50 -21 50 -92v-38q0 -52 -28 -81t-81 -29t-80 29t-27 81zM563 313v33q0 60 -51 60
t-51 -60v-33q0 -57 51 -57t51 57zM566 100v47q0 61 -54 61t-54 -61v-47q0 -61 54 -61t54 61z" />
    <glyph glyph-name="partialdiff" unicode="&#x2202;" horiz-adv-x="413" 
d="M190 -10q-78 0 -119 40.5t-41 116.5q0 16 1 21l9 121q10 154 134 154q86 0 115 -74l11 159q1 4 1 19q0 93 -82 93q-77 0 -85 -95l-1 -15h-74l1 13q14 167 160 167q159 0 159 -158q0 -18 -1 -24l-26 -370q-6 -82 -47.5 -125t-114.5 -43zM190 61q78 0 84 94l8 112
q3 49 -18.5 76.5t-65.5 27.5q-74 0 -81 -91l-8 -120v-12q0 -87 81 -87z" />
    <glyph glyph-name="emptyset" unicode="&#x2205;" horiz-adv-x="685" 
d="M145 91l-60 -62l-49 44l63 65q-69 86 -69 207q0 139 88 230q88 93 225 93q113 0 198 -69l60 63l48 -45l-62 -65q69 -86 69 -207q0 -137 -89 -231q-89 -92 -224 -92q-115 0 -198 69zM151 193l341 355q-64 53 -149 53q-104 0 -171 -73q-68 -73 -68 -183q0 -88 47 -152z
M343 89q103 0 170 72q68 74 68 184q0 91 -46 153l-341 -355q62 -54 149 -54z" />
    <glyph glyph-name="uni2206" unicode="&#x2206;" 
d="M383 0h-366l130 700h105zM196 606l-95 -535h191z" />
    <glyph glyph-name="product" unicode="&#x220f;" horiz-adv-x="465" 
d="M135 -155h-78v855h352v-855h-78v784h-196v-784z" />
    <glyph glyph-name="summation" unicode="&#x2211;" horiz-adv-x="410" 
d="M381 -155h-351v70l195 359l-195 356v70h351v-71h-265l192 -356l-192 -357h265v-71z" />
    <glyph glyph-name="minus" unicode="&#x2212;" 
d="M370 270h-340v60h340v-60z" />
    <glyph glyph-name="uni2215" unicode="&#x2215;" 
d="M85 0h-64l294 700h65z" />
    <glyph glyph-name="uni2219" unicode="&#x2219;" horiz-adv-x="186" 
d="M143 300h-100v100h100v-100z" />
    <glyph glyph-name="radical" unicode="&#x221a;" horiz-adv-x="466" 
d="M264 -65h-81l-85 385h-76v60h138l70 -330l152 650h63z" />
    <glyph glyph-name="infinity" unicode="&#x221e;" horiz-adv-x="637" 
d="M175 141q-68 0 -105 45t-37 116q0 69 37 113.5t103 44.5q46 0 78.5 -23t63.5 -77h4q54 100 144 100q69 0 105 -47q37 -46 37 -114q0 -70 -37 -114t-104 -44q-45 0 -77.5 23t-63.5 77h-4q-55 -100 -144 -100zM180 203q33 0 56.5 22t49.5 79q-31 55 -53 75t-54 20
q-37 0 -59 -27t-22 -70q0 -44 22 -71.5t60 -27.5zM459 201q36 0 58.5 27.5t22.5 70.5q0 44 -22 71.5t-60 27.5q-33 0 -55 -21t-52 -80q36 -59 55 -77q20 -19 53 -19z" />
    <glyph glyph-name="integral" unicode="&#x222b;" 
d="M122 -170q-38 0 -62 10v72q24 -11 47 -11q53 0 53 60v662q0 62 30 94.5t87 32.5q38 0 61 -10v-71q-16 10 -47 10q-53 0 -53 -60v-662q0 -62 -30 -94.5t-86 -32.5z" />
    <glyph glyph-name="approxequal" unicode="&#x2248;" 
d="M61 317l-44 33q28 50 53.5 72t59.5 22q32 0 76 -31q46 -30 64 -30q19 0 33 13.5t37 50.5l44 -33q-29 -50 -54.5 -72t-59.5 -22q-30 0 -76 31q-44 29 -63 30q-19 0 -33 -13.5t-37 -50.5zM61 154l-44 33q28 50 53.5 72t59.5 22q32 0 76 -31q47 -30 64 -30q19 0 33 13.5
t37 50.5l44 -33q-29 -50 -54.5 -72t-59.5 -22q-30 0 -76 31q-44 29 -63 30q-19 0 -33 -13.5t-37 -50.5z" />
    <glyph glyph-name="notequal" unicode="&#x2260;" 
d="M105 92h-60l59 97h-64v60h99l63 102h-162v60h197l59 97h60l-59 -97h63v-60h-98l-63 -102h161v-60h-196z" />
    <glyph glyph-name="lessequal" unicode="&#x2264;" 
d="M346 266v-62l-300 114v57l300 114v-62l-218 -80zM346 112h-300v60h300v-60z" />
    <glyph glyph-name="greaterequal" unicode="&#x2265;" 
d="M354 318l-300 -114v62l218 81l-218 80v62l300 -114v-57zM354 112h-300v60h300v-60z" />
    <glyph glyph-name="lozenge" unicode="&#x25ca;" 
d="M214 -10h-27l-163 360l163 360h27l162 -360zM91 350l109 -254l109 254l-109 255z" />
    <glyph glyph-name="uniE0FF" unicode="&#xe0ff;" horiz-adv-x="532" 
 />
    <glyph glyph-name="uniEFFD" unicode="&#xeffd;" horiz-adv-x="532" 
 />
    <glyph glyph-name="uniF000" unicode="&#xf000;" horiz-adv-x="532" 
 />
    <glyph glyph-name="uniF8FF" unicode="&#xf8ff;" horiz-adv-x="634" 
d="M264 494h59v116h156v-116h132v-152h-132v-60q0 -110 -63 -174t-165 -64q-101 0 -165 62q-63 63 -63 163t65 162q64 63 176 63zM323 281v61h-60q-39 0 -61 -20q-21 -20 -21 -52t20 -52q23 -18 51 -20t51 21.5t20 61.5z" />
    <glyph glyph-name="_1" horiz-adv-x="0" 
 />
    <glyph glyph-name="CR.001" horiz-adv-x="333" 
 />
    <glyph glyph-name="NULL" horiz-adv-x="0" 
 />
    <glyph glyph-name="uni00A40301" horiz-adv-x="259" 
d="M181 752h-62l71 128h87zM68 -4q-33 0 -51 6v71q19 -6 41 -6q41 0 60 21t19 67v545h78v-543q0 -82 -36 -121.5t-111 -39.5z" />
    <glyph glyph-name="i.loclTRK" horiz-adv-x="171" 
d="M123 575h-75v108h75v-108zM123 0h-75v503h75v-503z" />
    <glyph glyph-name="germandbls.calt" horiz-adv-x="408" 
d="M368 630l-99 -215q58 -11 83.5 -51.5t25.5 -113.5v-80q0 -170 -158 -170h-30v71h30q42 0 61 21.5t19 72.5v89q0 51 -19 72.5t-61 21.5h-28v67l99 214h-165v-629h-78v700h320v-70z" />
    <glyph glyph-name="zero.tf" 
d="M200 -10q-77 0 -118.5 45t-41.5 128v375q0 83 41.5 127.5t118.5 44.5q78 0 119.5 -44.5t41.5 -127.5v-375q0 -83 -41.5 -128t-119.5 -45zM200 61q83 0 83 97v385q0 96 -83 96q-82 0 -82 -96v-385q0 -97 82 -97z" />
    <glyph glyph-name="one.tf" 
d="M289 0h-78v572q-47 -21 -120 -22v58q60 1 93 22.5t50 70.5h55v-701z" />
    <glyph glyph-name="two.tf" 
d="M353 0h-308v60q0 81 29 141q31 60 95 127q63 66 88 109q26 46 26 98q0 104 -81 104q-83 0 -83 -96v-63h-74v58q0 82 40 127t119 45q77 0 117 -45t40 -127q0 -63 -30.5 -120.5t-101.5 -131.5q-56 -56 -83 -102q-24 -42 -24 -98v-15h231v-71z" />
    <glyph glyph-name="three.tf" 
d="M197 -10q-79 0 -119 44.5t-40 126.5v53h74v-56q0 -97 83 -97q82 0 82 104v61q0 104 -88 104h-42v71h44q84 0 84 95v46q0 97 -80 97q-79 0 -79 -94v-41h-74v35q0 83 39.5 127t116.5 44q75 0 115 -44t40 -126v-28q0 -115 -82 -142v-2q84 -27 84 -142v-65q0 -83 -40 -127
t-118 -44z" />
    <glyph glyph-name="four.tf" 
d="M325 0h-78v141h-226v72l218 487h86v-488h56v-71h-56v-141zM247 562l-153 -350h153v350z" />
    <glyph glyph-name="five.tf" 
d="M202 -10q-79 0 -119 45t-40 128v47h74v-53q0 -96 83 -96q82 0 82 96v151q0 94 -77 94q-70 0 -85 -77v-6h-74l20 381h278v-71h-209l-11 -213q34 57 110 57q126 0 126 -159v-151q0 -83 -40 -128t-118 -45z" />
    <glyph glyph-name="six.tf" 
d="M204 -10q-78 0 -119.5 45t-41.5 128v371q0 176 161 176q77 0 117.5 -44.5t40.5 -127.5v-13h-74v18q0 96 -82 96q-85 0 -85 -108v-158q35 69 115 69q128 0 128 -161v-118q0 -83 -41.5 -128t-118.5 -45zM204 61q82 0 82 96v118q0 96 -79 96q-40 0 -63 -28t-23 -75v-111
q0 -96 83 -96z" />
    <glyph glyph-name="seven.tf" 
d="M167 0h-81l196 629h-243v71h320v-69z" />
    <glyph glyph-name="eight.tf" 
d="M35 161v65q0 111 79 142v1q-75 35 -75 139v34q0 82 41 125t120 43t120.5 -43t41.5 -125v-34q0 -105 -76 -139v-1q80 -32 80 -142v-65q0 -82 -43 -126.5t-123 -44.5t-122.5 44.5t-42.5 126.5zM200 401q84 0 84 92v51q0 95 -84 95q-83 0 -83 -95v-51q0 -92 83 -92zM200 61
q88 0 88 104v68q0 97 -88 97q-87 0 -87 -97v-68q0 -104 87 -104z" />
    <glyph glyph-name="nine.tf" 
d="M197 -10q-78 0 -118 44.5t-40 128.5v12h74v-17q0 -97 82 -97q43 0 63.5 26t20.5 83v158q-34 -70 -114 -70q-129 0 -129 162v118q0 83 41.5 127.5t119.5 44.5q77 0 118.5 -44.5t41.5 -127.5v-371q0 -177 -160 -177zM193 329q41 0 63.5 27.5t22.5 75.5v111q0 96 -82 96
q-83 0 -83 -96v-117q0 -97 79 -97z" />
    <glyph glyph-name="zero.dnom" horiz-adv-x="283" 
d="M142 -10q-50 0 -76.5 29t-26.5 82v243q0 53 26.5 81.5t76.5 28.5t76.5 -28.5t26.5 -81.5v-243q0 -53 -27 -82t-76 -29zM191 97v251q0 58 -49 58t-49 -58v-251q0 -58 49 -58t49 58z" />
    <glyph glyph-name="one.dnom" horiz-adv-x="283" 
d="M192 0h-54v358q-33 -11 -76 -12v40q39 1 60 14t33 44h37v-444z" />
    <glyph glyph-name="two.dnom" horiz-adv-x="283" 
d="M240 0h-197v43q0 51 17.5 89.5t59.5 80.5q39 40 55 69.5t16 62.5q0 61 -48 61q-49 0 -49 -58v-37h-51v34q0 52 25.5 80.5t75.5 28.5t75.5 -28t25.5 -79q0 -42 -19.5 -79t-65.5 -85q-37 -40 -50.5 -66t-13.5 -58v-10h144v-49z" />
    <glyph glyph-name="three.dnom" horiz-adv-x="283" 
d="M138 -10q-49 0 -75 29t-26 82v34h51v-38q0 -58 49 -58t49 63v42q0 64 -54 64h-26v48h29q51 0 51 59v27q0 64 -49 64t-49 -58v-26h-50v22q0 110 101 110t101 -110v-20q0 -70 -51 -90v-2q51 -16 51 -92v-39q0 -111 -102 -111z" />
    <glyph glyph-name="four.dnom" horiz-adv-x="283" 
d="M223 0h-54v87h-142v49l137 308h59v-309h35v-48h-35v-87zM170 349l-93 -214h93v214z" />
    <glyph glyph-name="five.dnom" horiz-adv-x="283" 
d="M144 -10q-50 0 -76 29t-26 81v25h51v-28q0 -57 49 -57t49 57v97q0 58 -46 58q-43 0 -50 -48v-9h-51l13 249h178v-48h-131l-7 -131q23 36 68 36q80 0 80 -103v-98q0 -52 -25.5 -81t-75.5 -29z" />
    <glyph glyph-name="six.dnom" horiz-adv-x="283" 
d="M145 -10q-50 0 -76.5 29t-26.5 82v241q0 112 103 112q49 0 75.5 -28.5t26.5 -81.5v-6h-51v10q0 58 -49 58q-51 0 -51 -67v-101q20 41 70 41q82 0 82 -101v-77q0 -53 -27 -82t-76 -29zM194 96v77q0 58 -48 58q-23 0 -36.5 -16t-13.5 -45v-74q0 -57 49 -57t49 57z" />
    <glyph glyph-name="seven.dnom" horiz-adv-x="283" 
d="M122 0h-55l122 396h-151v48h204v-47z" />
    <glyph glyph-name="eight.dnom" horiz-adv-x="283" 
d="M34 100v38q0 71 49 92v2q-46 21 -46 88v25q0 52 27 80.5t77 28.5q51 0 78.5 -28.5t27.5 -80.5v-25q0 -67 -47 -88v-2q50 -21 50 -92v-38q0 -52 -28 -81t-81 -29t-80 29t-27 81zM193 313v33q0 60 -51 60t-51 -60v-33q0 -57 51 -57t51 57zM196 100v47q0 61 -54 61t-54 -61
v-47q0 -61 54 -61t54 61z" />
    <glyph glyph-name="nine.dnom" horiz-adv-x="283" 
d="M138 -10q-49 0 -75 28.5t-26 82.5v6h51v-10q0 -58 49 -58q51 0 51 66v101q-23 -41 -71 -41q-82 0 -82 102v77q0 53 27 81.5t77 28.5q49 0 76 -28.5t27 -81.5v-241q0 -113 -104 -113zM137 214q23 0 37 16t14 44v74q0 58 -49 58q-50 0 -50 -58v-77q0 -57 48 -57z" />
    <glyph glyph-name="zero.numr" horiz-adv-x="283" 
d="M142 246q-50 0 -76.5 29t-26.5 82v243q0 53 26.5 81.5t76.5 28.5t76.5 -28.5t26.5 -81.5v-243q0 -53 -27 -82t-76 -29zM191 353v251q0 58 -49 58t-49 -58v-251q0 -58 49 -58t49 58z" />
    <glyph glyph-name="one.numr" horiz-adv-x="283" 
d="M192 256h-54v358q-33 -11 -76 -12v40q39 1 60 14t33 44h37v-444z" />
    <glyph glyph-name="two.numr" horiz-adv-x="283" 
d="M240 256h-197v43q0 51 17.5 89.5t59.5 80.5q39 40 55 69.5t16 62.5q0 61 -48 61q-49 0 -49 -58v-37h-51v34q0 52 25.5 80.5t75.5 28.5t75.5 -28t25.5 -79q0 -42 -19.5 -79t-65.5 -85q-37 -40 -50.5 -66t-13.5 -58v-10h144v-49z" />
    <glyph glyph-name="three.numr" horiz-adv-x="283" 
d="M138 246q-49 0 -75 29t-26 82v34h51v-38q0 -58 49 -58t49 63v42q0 64 -54 64h-26v48h29q51 0 51 59v27q0 64 -49 64t-49 -58v-26h-50v22q0 110 101 110t101 -110v-20q0 -70 -51 -90v-2q51 -16 51 -92v-39q0 -111 -102 -111z" />
    <glyph glyph-name="four.numr" horiz-adv-x="283" 
d="M223 256h-54v87h-142v49l137 308h59v-309h35v-48h-35v-87zM170 605l-93 -214h93v214z" />
    <glyph glyph-name="five.numr" horiz-adv-x="283" 
d="M144 246q-50 0 -76 29t-26 81v25h51v-28q0 -57 49 -57t49 57v97q0 58 -46 58q-43 0 -50 -48v-9h-51l13 249h178v-48h-131l-7 -131q23 36 68 36q80 0 80 -103v-98q0 -52 -25.5 -81t-75.5 -29z" />
    <glyph glyph-name="six.numr" horiz-adv-x="283" 
d="M145 246q-50 0 -76.5 29t-26.5 82v241q0 112 103 112q49 0 75.5 -28.5t26.5 -81.5v-6h-51v10q0 58 -49 58q-51 0 -51 -67v-101q20 41 70 41q82 0 82 -101v-77q0 -53 -27 -82t-76 -29zM194 352v77q0 58 -48 58q-23 0 -36.5 -16t-13.5 -45v-74q0 -57 49 -57t49 57z" />
    <glyph glyph-name="seven.numr" horiz-adv-x="283" 
d="M122 256h-55l122 396h-151v48h204v-47z" />
    <glyph glyph-name="eight.numr" horiz-adv-x="283" 
d="M34 356v38q0 71 49 92v2q-46 21 -46 88v25q0 52 27 80.5t77 28.5q51 0 78.5 -28.5t27.5 -80.5v-25q0 -67 -47 -88v-2q50 -21 50 -92v-38q0 -52 -28 -81t-81 -29t-80 29t-27 81zM193 569v33q0 60 -51 60t-51 -60v-33q0 -57 51 -57t51 57zM196 356v47q0 61 -54 61t-54 -61
v-47q0 -61 54 -61t54 61z" />
    <glyph glyph-name="nine.numr" horiz-adv-x="283" 
d="M138 246q-49 0 -75 28.5t-26 82.5v6h51v-10q0 -58 49 -58q51 0 51 66v101q-23 -41 -71 -41q-82 0 -82 102v77q0 53 27 81.5t77 28.5q49 0 76 -28.5t27 -81.5v-241q0 -113 -104 -113zM137 470q23 0 37 16t14 44v74q0 58 -49 58q-50 0 -50 -58v-77q0 -57 48 -57z" />
    <glyph glyph-name="caroncomb.alt" horiz-adv-x="0" 
d="M0 512h-33l25 94h-28v94h72v-87z" />
    <glyph glyph-name="caron.alt" horiz-adv-x="500" 
d="M250 512h-33l25 94h-28v94h72v-87z" />
    </font>
</defs>
</svg>
